<?xml version="1.0" encoding="utf-8"?>
<!-- Generator: Adobe Illustrator 25.2.0, SVG Export Plug-In . SVG Version: 6.00 Build 0)  -->
<svg version="1.1" xmlns="http://www.w3.org/2000/svg" xmlns:xlink="http://www.w3.org/1999/xlink" x="0px" y="0px"
	 viewBox="0 0 300 200" style="enable-background:new 0 0 300 200;" xml:space="preserve">
<style type="text/css">
	.st0{display:none;}
	.st1{display:inline;}
	.st2{fill:none;stroke:#262626;stroke-width:0.75;stroke-miterlimit:10;}
	.st3{fill:#3F64FC;}
	.st4{fill:none;stroke:#262626;stroke-width:0.5;stroke-miterlimit:10;}
	.st5{fill:#595959;stroke:#595959;stroke-linecap:round;stroke-linejoin:round;stroke-miterlimit:10;}
	.st6{fill:none;stroke:#FFFFFF;stroke-width:0.5;stroke-linecap:round;stroke-linejoin:round;stroke-miterlimit:10;}
	.st7{fill:none;stroke:#262626;stroke-width:0.75;stroke-linecap:round;stroke-linejoin:round;stroke-miterlimit:10;}
	.st8{fill:none;stroke:#262626;stroke-width:0.25;stroke-linecap:round;stroke-linejoin:round;}
	.st9{fill:none;stroke:#262626;stroke-width:0.25;stroke-linecap:round;stroke-linejoin:round;stroke-dasharray:1.0034,1.0034;}
	.st10{fill:none;stroke:#D33700;stroke-width:2;stroke-linejoin:round;stroke-miterlimit:10;}
	.st11{fill:none;stroke:#262626;stroke-miterlimit:10;}
	.st12{fill:#3F64FC;stroke:#3F64FC;stroke-miterlimit:10;}
	.st13{fill:none;}
	.st14{fill:#FCFCFC;}
	.st15{fill:#FCFCFC;stroke:#262626;stroke-width:0.75;stroke-linecap:round;stroke-linejoin:round;stroke-miterlimit:10;}
	.st16{fill:#FFFFFF;stroke:#FFFFFF;stroke-miterlimit:10;}
	.st17{fill:#FEFFFE;}
	.st18{fill:#FFFFFF;stroke:#D33700;stroke-miterlimit:10;}
	.st19{fill:#262626;stroke:#262626;stroke-width:0.1;stroke-miterlimit:10;}
	.st20{fill:none;stroke:#D33700;stroke-miterlimit:10;}
	.st21{fill:#D33700;}
	.st22{fill:#FFFFFF;stroke:#262626;stroke-width:0.5;stroke-linecap:round;stroke-linejoin:round;stroke-miterlimit:10;}
	.st23{fill:#FFFFFF;stroke:#262626;stroke-width:0.75;stroke-linecap:round;stroke-linejoin:round;stroke-miterlimit:10;}
	.st24{fill:none;stroke:#262626;stroke-width:0.25;stroke-linecap:round;stroke-linejoin:round;stroke-dasharray:1.0029,1.0029;}
	.st25{fill:#FFFFFF;}
	.st26{fill:#FFFFFF;stroke:#262626;stroke-width:0.5;stroke-miterlimit:10;}
	.st27{display:inline;fill:none;stroke:#262626;stroke-width:0.5;stroke-miterlimit:10;}
	.st28{display:inline;fill:#595959;stroke:#595959;stroke-linecap:round;stroke-linejoin:round;stroke-miterlimit:10;}
	.st29{display:inline;fill:none;stroke:#262626;stroke-width:0.75;stroke-miterlimit:10;}
	
		.st30{display:inline;fill:none;stroke:#262626;stroke-width:0.75;stroke-linecap:round;stroke-linejoin:round;stroke-miterlimit:10;}
	.st31{fill:none;stroke:#262626;stroke-width:0.25;stroke-linecap:round;stroke-linejoin:round;stroke-dasharray:0.9939,0.9939;}
	.st32{display:inline;fill:none;stroke:#D33700;stroke-width:2;stroke-linejoin:round;stroke-miterlimit:10;}
	.st33{clip-path:url(#SVGID_5_);fill:#FFFFFF;stroke:#D33700;stroke-miterlimit:10;}
	.st34{clip-path:url(#SVGID_5_);}
	.st35{fill:none;stroke:#262626;stroke-width:0.5;stroke-linecap:round;stroke-linejoin:round;}
	.st36{fill:none;stroke:#262626;stroke-width:0.5;stroke-linecap:round;stroke-linejoin:round;stroke-dasharray:2.0044,2.0044;}
	.st37{fill:none;stroke:#D33700;stroke-width:3;stroke-linejoin:round;stroke-miterlimit:10;}
	.st38{fill:none;stroke:#262626;stroke-width:0.5;stroke-linecap:round;stroke-linejoin:round;stroke-miterlimit:10;}
	
		.st39{display:inline;fill:none;stroke:#262626;stroke-width:0.5;stroke-linecap:round;stroke-linejoin:round;stroke-miterlimit:10;}
	.st40{clip-path:url(#SVGID_7_);fill:#FFFFFF;}
	
		.st41{clip-path:url(#SVGID_7_);fill:none;stroke:#262626;stroke-width:0.5;stroke-linecap:round;stroke-linejoin:round;stroke-miterlimit:10;}
	.st42{clip-path:url(#SVGID_7_);fill:none;stroke:#262626;stroke-width:0.5;stroke-miterlimit:10;}
	.st43{clip-path:url(#SVGID_7_);fill:none;stroke:#262626;stroke-width:0.75;stroke-miterlimit:10;}
	
		.st44{clip-path:url(#SVGID_7_);fill:none;stroke:#262626;stroke-width:0.75;stroke-linecap:round;stroke-linejoin:round;stroke-miterlimit:10;}
	.st45{clip-path:url(#SVGID_7_);}
	.st46{fill:none;stroke:#262626;stroke-width:0.25;stroke-linecap:round;stroke-linejoin:round;stroke-dasharray:1.0151,1.0151;}
	.st47{clip-path:url(#SVGID_7_);fill:none;stroke:#D33700;stroke-width:2;stroke-linejoin:round;stroke-miterlimit:10;}
	.st48{clip-path:url(#SVGID_7_);fill:none;stroke:#262626;stroke-linecap:round;stroke-linejoin:round;stroke-miterlimit:10;}
	.st49{clip-path:url(#SVGID_7_);fill:#595959;stroke:#595959;stroke-linecap:round;stroke-linejoin:round;stroke-miterlimit:10;}
	.st50{fill:#262626;stroke:#262626;stroke-width:0.5;stroke-linecap:round;stroke-linejoin:round;stroke-miterlimit:10;}
	.st51{fill:none;stroke:#262626;stroke-width:0.25;stroke-linecap:round;stroke-linejoin:round;stroke-dasharray:1.0021,1.0021;}
	.st52{fill:none;stroke:#262626;stroke-width:0.25;stroke-linecap:round;stroke-linejoin:round;stroke-dasharray:0.9961,0.9961;}
	.st53{fill:none;stroke:#D33700;stroke-linecap:round;stroke-linejoin:round;}
	.st54{clip-path:url(#SVGID_9_);fill:none;stroke:#262626;stroke-width:0.5;stroke-miterlimit:10;}
	.st55{clip-path:url(#SVGID_9_);fill:none;stroke:#262626;stroke-width:0.75;stroke-miterlimit:10;}
	.st56{clip-path:url(#SVGID_9_);}
	.st57{fill:none;stroke:#262626;stroke-width:0.25;stroke-linecap:round;stroke-linejoin:round;stroke-dasharray:1.0033,1.0033;}
	.st58{clip-path:url(#SVGID_9_);fill:none;stroke:#D33700;stroke-width:2;stroke-linejoin:round;stroke-miterlimit:10;}
	
		.st59{clip-path:url(#SVGID_9_);fill:none;stroke:#262626;stroke-width:0.5;stroke-linecap:round;stroke-linejoin:round;stroke-miterlimit:10;}
	
		.st60{clip-path:url(#SVGID_9_);fill:#262626;stroke:#262626;stroke-width:0.5;stroke-linecap:round;stroke-linejoin:round;stroke-miterlimit:10;}
</style>
<g id="_x31_" class="st0">
	<g class="st1">
		<path class="st2" d="M199,65.7c-4.1,1.7-10.6,4.6-18.4,8.6c-31.2,16-48.3,32.2-92.5,64.8c-28,20.7-33.8,23.5-41.6,22.3
			c-22.1-3.4-41.8-36.8-34.2-57.2C18,89.1,34.2,93,71.6,68.3c19.9-13.2,20.7-17.9,42.2-32.2c20.2-13.4,38.1-21.7,49.8-26.5
			C175.4,28.3,187.2,47,199,65.7z"/>
		<path class="st3" d="M202.8,64.7c-0.8,0.4-1.7,0.9-2.6,1.3c-1.4,0.7-2.8,1.2-4.1,1.7C184.4,48.5,172.7,29.2,161,9.9
			c0.5-0.2,0.9-0.4,1.4-0.6c1.5-0.7,3-1.3,4.5-2C178.8,26.4,190.8,45.6,202.8,64.7z"/>
		<path class="st4" d="M64.9,125.4c4.9-3,11.8-7.3,20.1-12.3c10.2-6.2,15.3-9.3,21.2-12.7c6.5-3.8,13-7.3,25.7-14.2
			c5.8-3.2,13.5-7.3,22.5-12.2"/>
		<path class="st4" d="M57.8,114.5c12.9-8.2,23.6-14.1,31.2-18c9.4-4.9,9.8-4.6,15.4-7.9c12.7-7.5,16.5-12.5,28.1-18.9
			c6-3.3,11.3-5.5,15.3-6.9"/>
		<path class="st4" d="M62.3,121.4c3.2-2.2,11.9-7.9,20.2-12.5c3.8-2.1,6.2-3.3,6.2-3.3c5.4-2.7,8.1-3.7,14.5-7.4
			c3-1.7,5.4-3.2,7.4-4.6c6.5-4.5,15.1-10.6,17.2-12.1c5-3.6,12.7-8.1,23.8-11.8"/>
		<path class="st2" d="M47.8,100.8c-1.5-0.1-3.6-0.1-6.1,0.3c-3.7,0.5-6,0.9-8,2.5c-0.9,0.8-1,1.2-3.9,7c-2,4-2.8,4.6-3.3,6.7
			c-0.4,1.7-0.8,3.8,0.2,5.8c1.1,2.3,3.8,4,6.3,3.8c3.1-0.2,3.5-3.2,7.1-3.7c0.5-0.1,4.1-0.5,5.7,1.5c1,1.3,0,2.6-0.1,8.2
			c-0.1,3.2,0.2,4,0.4,4.6c1.3,2.7,4.2,3.6,4.6,3.7c3.5,1,7.7-0.6,9.1-3.3c1-2,0.1-3.1,1.2-6.4c0.7-2.2,1.9-3.8,2.8-4.8"/>
		<circle class="st5" cx="47.6" cy="100.6" r="0.7"/>
		<circle class="st5" cx="63.6" cy="126.8" r="0.7"/>
		<path class="st2" d="M41.8,95.1c5.7-3.2,14.4-8.2,24.9-14.6c16.1-9.9,22.4-14.4,32.9-20.8c9.1-5.5,22.6-13.1,40-20.8"/>
		<path class="st2" d="M65.7,135.7c10.1-5.7,18-10.5,23.2-13.7c25.6-15.8,39.6-26.8,52.1-32.3c1.5-0.7,7.6-3.3,15.3-7.7
			c2.8-1.6,4.9-2.9,6.1-3.7"/>
		<path class="st6" d="M200.1,66c-12.2-19.1-24.4-38.2-36.5-57.3"/>
		<path class="st7" d="M139.2,39.2c2.6,6.9,5.4,12.1,7.5,15.5c2.4,3.9,4,5.7,7.4,11c3.5,5.4,6.2,9.9,7.8,12.8"/>
		<path class="st2" d="M42.3,94.5c2.6,6.8,5.5,12,7.7,15.5c3.6,5.7,4.4,5.5,7.4,11c1.7,3.1,3.5,6.8,7.1,12.1
			c0.6,0.9,1.2,1.7,1.5,2.1"/>
		<path class="st2" d="M140.7,46.7c0.7-1.3,1.8-3.1,3.3-5.1c1.8-2.3,3.4-4.3,6.2-5.7c3.9-2,7.7-1.6,8.8-1.5c2.1,0.2,3.6,0.9,6.6,2.2
			c4.4,1.9,6.6,2.8,7.2,4.7c0.8,2.6-1.8,5.5-2.1,5.8c-2.4,2.7-4.7,1.7-6.8,4.3c-0.3,0.4-2.5,3.3-1.5,5.6c0.8,2,3.6,2.9,7.2,4
			c3,0.9,3.9,0.7,4.7,1.7c1.9,2.2,0.2,6.4,0,6.9c-1.2,2.9-4.1,6.3-7.4,6.2c-2.1-0.1-2.7-1.5-6.1-2.2c-1.6-0.3-2.9-0.3-3.9-0.2"/>
		<circle class="st5" cx="140.1" cy="47.3" r="0.7"/>
		<circle class="st5" cx="156.5" cy="73.7" r="0.7"/>
		<g>
			<g>
				<path class="st8" d="M48.5,96.9c0.1-0.1,0.3-0.2,0.4-0.2"/>
				<path class="st9" d="M49.8,96.2c0.8-0.4,1.7-0.9,2.7-1.4c1.8-1,11.1-6.1,17.6-10.2c7.3-4.6,6.7-5.1,15.1-10.7
					c9-6.1,8.3-4.6,24.8-14.6c6.6-4,10.9-6.8,18.2-10c3.1-1.3,5.7-2.3,7.8-3.1"/>
				<path class="st8" d="M136.4,46c0.2-0.1,0.3-0.1,0.5-0.2"/>
			</g>
		</g>
		<path class="st10" d="M47.8,94.4c0.8-0.4,2.1-1.1,3.7-2c7.3-4,12.2-6.7,17.6-10.2c0.9-0.6,0.8-0.5,4.8-3.2
			c11.7-7.8,17.7-11.7,23.7-15.4c2-1.3,6.2-3.8,11.4-6.7c6.6-3.7,15.5-8.3,26.6-13"/>
		<path class="st2" d="M134.7,41.1c2.7,6.4,5.5,11.2,7.5,14.4c3.8,6,4.4,5.6,7.4,11c1.8,3.1,3.5,6.8,7.1,12.1
			c0.6,0.9,1.2,1.7,1.5,2.1"/>
		<path class="st7" d="M47,92.5c2.3,7.5,5.1,13,7.4,16.7c2.2,3.7,3.8,5.5,7.4,11c3.5,5.3,6.1,9.8,7.8,12.8"/>
	</g>
	<g class="st1">
		<path class="st11" d="M233.3,167.5c-5.8-0.6-20.6-2.8-34.2-14.4c-9.7-8.3-14.5-17.6-16.8-22.9c5.6-9.5,14.4-22,27.7-34.1
			c18.2-16.6,36.8-25.1,48.9-29.4c0.2,1,0.9,5.1,4.7,8.2c3.8,3.2,8.1,3,9.1,3c-2.2,11.2-5.7,24.3-11.2,38.4
			C253.1,138,242.5,155.1,233.3,167.5z"/>
		<path class="st12" d="M258.9,66.5c3.6-4.2,7.2-8.4,10.8-12.5c-3.2-2-6.5-3.9-9.7-5.9c-1.5,1.4-3,2.7-4.5,4.1c-1-0.9-2-1.8-3-2.6
			c2.1-2.7,4.1-5.5,6.2-8.2c6.4,3.5,12.8,7.1,19.2,10.6c1.8,0.8,3.2,1.7,4.2,2.3c2,1.3,3.1,2.1,3.8,3.6c0.3,0.6,0.9,1.9,0.6,3.3
			c-0.1,0.4-0.3,0.9-1.9,3.1c-1.1,1.4-1.6,2-1.6,2c-1.8,2-5.5,6.4-10.1,11.8c-0.9,0-7.5-0.1-11.4-5.3
			C259.6,70.3,259.1,67.9,258.9,66.5z"/>
		<path class="st4" d="M227,82.9c3.4,4.7,9,11.3,17.7,17.3c7.4,5,14.3,7.7,19.4,9.3"/>
		<path id="SVGID_x5F_1_x5F_" class="st13" d="M217.7,101.9c3.3,4.5,9.1,11.3,18.3,17c7.3,4.5,14.2,6.7,19.1,7.9"/>
		<text>		<textPath  xlink:href="#SVGID_x5F_1_x5F_" startOffset="6.6405%">
<tspan  style="font-family:'AcuminPro-Regular'; font-size:12px;">Jabón </tspan>		</textPath>
</text>
		<path class="st4" d="M204.1,101.9c2.5,5.1,8.8,16.5,22.1,25c10.6,6.8,20.7,8.6,26.3,9.3"/>
	</g>
	<g class="st1">
		<path class="st11" d="M177.7,172.4l-9.6,8.1c-3.7,3.1-9.3,2.6-12.5-1.2c-9.7-11.4-19.3-22.8-29-34.2c1.8-1,4.2-2.4,6.8-4.2
			c2-1.4,3.5-2.7,6.5-5.2c5.1-4.3,6.8-6.2,8-7.8c0.7-0.9,1.3-1.7,1.6-2.3c9.7,11.4,19.3,22.8,29,34.2
			C181.8,163.7,181.4,169.3,177.7,172.4z"/>
		<path class="st12" d="M149.8,126c-2.4,2.7-5.2,5.6-8.4,8.6c-5.1,4.6-10.1,8.2-14.5,10.9c-0.7-0.9-1.5-1.7-2.2-2.6
			c-2-2.4-1.7-5.9,0.7-7.9l14.4-12.2c2.4-2,5.9-1.7,7.9,0.7L149.8,126z"/>
		<path class="st4" d="M133,152.7c3.7-2,8.3-5,13-9.1c4.2-3.7,7.4-7.4,9.8-10.6c6,7.1,12,14.2,18,21.3c-1.1,2.8-3.7,8.3-9.3,13.1
			c-5,4.4-10.2,6.3-13.1,7.1C145.3,167.2,139.2,160,133,152.7z"/>
		<path id="SVGID_x5F_2_x5F_" class="st13" d="M142.4,162.1c2.8-0.8,6.3-2.1,10-4.3c5.9-3.5,9.7-7.8,11.9-10.8"/>
		<text>		<textPath  xlink:href="#SVGID_x5F_2_x5F_" startOffset="19.5315%">
<tspan  style="font-family:'AcuminPro-Regular'; font-size:6.1329px;">Alcohol</tspan>		</textPath>
</text>
		<path id="SVGID_x5F_3_x5F_" class="st13" d="M144.6,167.9c2.8-0.7,6.4-1.8,10.2-3.9c6-3.3,10-7.4,12.3-10.3"/>
		<text>		<textPath  xlink:href="#SVGID_x5F_3_x5F_" startOffset="32.25%">
<tspan  style="font-family:'AcuminPro-Regular'; font-size:6.1329px;">Gel</tspan>		</textPath>
</text>
	</g>
</g>
<g id="_x32_">
	<g>
		<g>
			<g>
				<path class="st7" d="M234.6,148.6c-10.3-1.5-19-3.3-26-4.8c-8-1.8-19.7-4.3-34.1-9.1c-13.4-4.4-12-4.9-21.2-7.5
					c-8.5-2.4-18.1-4.3-25.3-7c-1-0.4-1.6-0.6-2.8-0.9c-4.7-1.4-9.2-2.7-10.9-0.8c-0.3,0.3-0.7,1-0.7,2.2"/>
				<path class="st7" d="M142.3,128.6c-2.8-0.8-7.1-1.9-12.3-3.2c-9.3-2.3-8.4-1.8-11.9-2.8c-5.5-1.7-11.2-2.8-16.6-4.9
					c-0.8-0.3-3-1.3-4.8-0.3c-0.2,0.1-1.9,1-1.9,2.6c0,1.3,1.1,2.1,1.3,2.2"/>
				<path class="st7" d="M228.6,173.4c-18.3-4.7-36.6-9.4-55-14c-3.2,2.7-8.5,6.1-15.5,7.2c-6.8,1-12.7-0.6-14.9-1.2
					c-5-1.4-5.9-3-11.4-3.9c-2.6-0.5-5.2-1.1-7.8-1.5c0,0-0.9-0.1-5.8-2.1c-0.4-0.2-1-0.4-1.2-0.9c-0.3-1,1.6-2.6,3-3.3
					c0.8-0.4,3-1.3,10.4,0.5c2,0.5,6.2,1.7,7.9,2.1c1.9,0.5,4.6,1.3,6.8,0.1c0.6-0.3,0.8-0.6,0.9-0.8c0.2-1.3-3.7-3-5.9-4
					c-7.9-3.4-11.9-5.2-16.8-6.9c-3-1-1.7-0.6-10.3-3.5c-11.5-3.9-10.9-3.8-11.3-3.9c0,0-2.2-0.7-5.5-1.9c-0.4-0.1-1.8-0.6-2.7-1.9
					c-0.2-0.2-1.6-2.4-0.5-4c0.8-1.1,2.3-1.2,2.5-1.2"/>
				<path class="st7" d="M140.1,135.1c-12.4-4.2-20.7-6.6-25.9-8c-7-1.9-7.1-1.6-11-2.9c-2.1-0.7-5.9-2.1-11.2-2.9
					c-3-0.5-5.6-0.7-6.5,0.6c-0.4,0.6-0.4,1.3-0.2,1.9c0.4,1.4,2,2,2.8,2.3c5.1,1.9,16.8,4.6,18.3,5c1.3,0.3,3.6,1,8.3,2.5
					c3.6,1.1,5.8,1.9,13.7,4.5c2.1,0.7,5.5,1.8,9.8,3.3"/>
			</g>
			<g>
				<g>
					<g>
						<g>
							
								<rect x="103" y="132.7" transform="matrix(0.7544 -0.6564 0.6564 0.7544 -54.2272 124.1846)" class="st14" width="71.6" height="3.7"/>
							
								<rect x="114.2" y="108.9" transform="matrix(0.7544 -0.6564 0.6564 0.7544 -40.5755 127.4463)" class="st14" width="71.6" height="18.1"/>
							
								<rect x="107.5" y="124.8" transform="matrix(0.7637 -0.6456 0.6456 0.7637 -48.9129 120.0584)" class="st14" width="64.1" height="4.1"/>
							<g>
								<path class="st15" d="M193.8,57.1c-8.4,9-15,16.3-19.4,21.1c-8.3,9.2-10.6,11.7-15,15.8c-8.8,8.1-8.5,5.8-17.5,14.1
									c-6.5,6-13.2,13.1-19.3,17.8c-0.9,0.7-1.3,1.1-2.3,1.9c-3.6,3.2-7.2,6.4-6.4,8.8c0.1,0.5,0.6,1.3,2.2,2"/>
								<path class="st15" d="M137.3,118.1c-2.2,2-5.4,5-9.2,8.8c-6.8,6.7-5.9,6.2-8.6,8.6c-4.3,3.8-8.3,8.1-12.9,11.5
									c-0.7,0.5-2.6,1.9-2.8,3.9c0,0.2-0.1,2.1,1.2,2.9c1.1,0.7,2.4,0.2,2.6,0.1"/>
								<path class="st15" d="M147.5,103.3c0.8-0.6,1.8-1.4,2.6-1.9c6.6-4.9,7.4-5.5,8.3-6.3c2.4-2,3.9-3.7,5.7-5.7
									c4.7-5.1,9.4-10.2,14.1-15.3c5.2-5.7,10.4-11.3,15.6-17c4.6,2.1,9.2,4.2,13.7,6.3c2.6,1.5,5.2,2.9,7.7,4.4
									c-11.8,13.3-23.5,26.6-35.3,39.9c0.6,4.1,0.8,10.4-2,16.9c-2.7,6.3-7.2,10.5-8.9,12c-3.8,3.5-5.6,3.5-9.3,7.6
									c-1.8,2-3.7,3.8-5.4,5.9c0,0-0.6,0.7-4.8,3.9c-0.4,0.3-0.9,0.7-1.4,0.5c-1-0.3-1.3-2.7-1.2-4.3c0.1-0.8,0.4-3.3,5.9-8.6
									c1.5-1.5,4.6-4.4,6-5.6c1.5-1.3,3.5-3.2,3.6-5.8c0-0.7-0.1-1-0.3-1.2c-1-0.9-4.5,1.6-6.5,3c-7.1,4.9-10.7,7.4-14.7,10.7
									c-2.5,2-1.4,1.2-8.4,7c-9.3,7.7-9,7.3-9.2,7.6c0,0-1.8,1.5-4.5,3.7c-0.3,0.3-1.5,1.2-3,1.2c-0.3,0-2.9,0.1-3.7-1.6
									c-0.5-1.2,0.2-2.6,0.3-2.8"/>
								<path class="st15" d="M141.8,123.4c-10.1,8.3-16.5,14.1-20.4,17.8c-5.3,4.9-5.1,5.2-8.3,7.9c-1.7,1.4-4.9,4-8.4,8
									c-2,2.3-3.5,4.4-2.9,5.9c0.3,0.6,0.9,1,1.5,1.2c1.4,0.4,2.8-0.7,3.4-1.2c4.3-3.3,12.8-11.9,13.9-13c0.9-0.9,2.8-2.5,6.4-5.8
									c2.9-2.5,4.6-4,11-9.3c1.7-1.4,4.4-3.7,7.9-6.7"/>
							</g>
						</g>
						
							<ellipse transform="matrix(0.9683 -0.2496 0.2496 0.9683 -31.1729 34.309)" class="st16" cx="119.7" cy="140.1" rx="1.4" ry="0.8"/>
					</g>
					
						<ellipse transform="matrix(0.9683 -0.2496 0.2496 0.9683 -25.4066 37.2762)" class="st16" cx="134.3" cy="118.8" rx="0.8" ry="0.5"/>
				</g>
				<path class="st15" d="M146.7,103.9c0.3-0.3,0.7-0.5,1-0.8"/>
			</g>
		</g>
		
			<ellipse transform="matrix(0.9683 -0.2496 0.2496 0.9683 -31.8507 33.82)" class="st17" cx="117.4" cy="142.5" rx="0.7" ry="0.8"/>
	</g>
	<circle class="st18" cx="228.3" cy="48.6" r="38.1"/>
	<g>
		<path class="st11" d="M205.7,38.1l2.3-5.6c0.9-2.2,3.4-3.2,5.6-2.2c6.7,2.8,13.3,5.6,20,8.3c-0.6,0.8-1.3,1.9-2,3.3
			c-0.6,1.1-0.9,1.9-1.7,3.7c-1.3,3-1.6,4.1-1.7,5.1c-0.1,0.6-0.2,1-0.2,1.4c-6.7-2.8-13.3-5.6-20-8.3
			C205.8,42.8,204.8,40.3,205.7,38.1z"/>
		<path class="st12" d="M247.5,31.5c-1.4,1-3.1,2.1-4.9,3.1c-2.9,1.6-5.7,2.7-8.1,3.5c-0.2-0.5-0.5-1-0.7-1.5
			c-0.7-1.3-0.1-3,1.2-3.6l8.2-4.1c1.3-0.7,3-0.1,3.6,1.2L247.5,31.5z"/>
		<path class="st4" d="M229.3,36.8c-1.2,1.7-2.5,4-3.6,6.8c-1,2.5-1.5,4.8-1.9,6.7c-4.1-1.7-8.3-3.5-12.4-5.2
			c-0.1-1.5-0.2-4.4,1.1-7.7c1.2-3,3-4.9,4.1-5.9C220.8,33.3,225,35,229.3,36.8z"/>
		<path class="st4" d="M232.8,47.1c-1.3,3-3.6,5.8-4.2,5.5c-0.8-0.4,1.1-5.8,1.7-7.6c0.1-0.3,0.8-2.2,2.2-4.5c0.9-1.4,1.3-2,1.6-1.9
			C234.7,38.7,234.5,43.1,232.8,47.1z"/>
		
			<ellipse transform="matrix(0.4139 -0.9103 0.9103 0.4139 91.0738 238.312)" class="st19" cx="230.6" cy="48.4" rx="1.1" ry="0.5"/>
		<path class="st3" d="M229.4,78c0,0-1.3,0-2.7-1.3c-2.9-2.8,2.4-17.4,2.7-18.1c0.3,1,5.3,15.7,2.4,18.3C230.6,78,229.4,78,229.4,78
			z"/>
	</g>
	<g>
		<g>
			<path class="st20" d="M84.2,60.5c7.4-5,17.3-10.6,29.6-14.8c17.7-6,33.5-6.9,44.7-6.4"/>
			<g>
				<path class="st21" d="M79.3,64c2.9-0.8,6.8-1.3,9.7-1L84.9,60l-1.3-4.9C82.9,58,81.1,61.5,79.3,64z"/>
			</g>
			<g>
				<path class="st21" d="M164.5,39.7c-2.9,0.9-6.5,2.5-8.8,4.3l2-4.7l-1.5-4.8C158.3,36.5,161.8,38.5,164.5,39.7z"/>
			</g>
		</g>
	</g>
	<path class="st22" d="M159.2,96.8c0.6-2.8-0.1-5.4-1.9-6.2c-2.5-1.1-6.6,1.8-8.5,4c-1.1,1.2-1.6,2.4-1.9,3.2
		c-0.8-0.2-2.3-0.4-4.1,0c-1,0.2-3.4,0.8-3.9,2.6c-0.5,1.7,1,3.2,1.2,3.4c-2.3,0.6-3.9,2.2-4.3,4c-0.4,1.9,0.6,4.2,3.1,5.2
		c2.2,0.8,4.9,0.2,6.6-1.4c0.5,0.5,1.4,1.1,2.7,1.6c2.9,1,7,0.3,9-2.2c1.7-2,1.2-4.3,1-4.9c0.8,0.2,2.1,0.4,3.5,0.1
		c3-0.8,5.8-4,4.4-6.7C165,97.6,162.2,96.4,159.2,96.8z"/>
	<path class="st22" d="M170.8,164.4c-0.9,2.7-0.6,5.3,1.1,6.3c2.4,1.4,6.8-0.9,8.9-2.9c1.2-1.1,1.9-2.2,2.3-3
		c0.7,0.3,2.3,0.7,4.1,0.5c1-0.1,3.5-0.4,4.2-2.1c0.7-1.6-0.6-3.3-0.8-3.5c2.3-0.3,4.2-1.7,4.8-3.5c0.6-1.8,0-4.3-2.4-5.5
		c-2.1-1.1-4.9-0.9-6.7,0.6c-0.4-0.5-1.2-1.3-2.4-1.9c-2.8-1.3-6.9-1.1-9.2,1.1c-1.9,1.8-1.7,4.2-1.6,4.7c-0.8-0.3-2-0.7-3.5-0.5
		c-3.1,0.4-6.3,3.3-5.2,6.1C165.2,162.9,167.8,164.4,170.8,164.4z"/>
	<g>
		<g>
			<path class="st11" d="M43,117.9c0.4-9.2,0.9-18.4,1.3-27.6c10.4-3.4,20.8-6.9,31.2-10.3c0.9-0.1,2.2-0.1,3.6,0.4
				c4.3,1.7,5.1,7.2,5.1,7.5c-2.7,1-5.3,2.1-8,3.1c-0.3-0.7-0.7-1.4-1-2.1c-6.4,2.3-12.8,4.6-19.2,6.9c0.9,6.9,1.9,13.8,2.8,20.7
				c-1.1,0.8-3.9,2.7-8.1,3C47,119.7,44.2,118.5,43,117.9z"/>
			<path class="st11" d="M44.8,90.1c-3.3-4.3-6.6-8.6-9.9-12.9c2.2-2.2,5.3-5.1,9.5-8.2c4.7-3.5,12-8.2,12.8-7.2
				c0.1,0.1,0.2,0.5-2.3,4c-2.4,3.4-4.7,6-6.4,7.9c2.1,2.5,4.3,4.9,6.4,7.4C51.6,84.1,48.2,87.1,44.8,90.1z"/>
			<path class="st11" d="M55.1,81.1c0,1.9-0.1,3.8-0.1,5.6"/>
		</g>
		<g>
			<path class="st23" d="M86.3,90.8c5.8,1.3,11.5,2.5,17.3,3.8"/>
			<path class="st23" d="M81.9,92.7c2.6,5.3,5.3,10.6,7.9,15.8"/>
			<path class="st23" d="M77.4,94.2c-0.3,5.9-0.7,11.8-1,17.7"/>
		</g>
	</g>
</g>
<g id="_x33_" class="st0">
	<g class="st1">
		<g>
			<path class="st4" d="M193.7,138c-2.4-3.6-5.7-8.6-9.6-14.7c-4.8-7.5-7.3-11.2-9.9-15.5c-2.9-4.8-5.7-9.5-11.1-18.8
				c-2.5-4.3-5.7-9.9-9.5-16.5"/>
			<path class="st4" d="M185.7,143.5c-6.4-9.4-11-17.3-14.1-22.8c-3.8-6.9-3.7-7.2-6.2-11.3c-5.9-9.3-9.7-12-14.7-20.5
				c-2.6-4.4-4.3-8.3-5.5-11.3"/>
			<path class="st4" d="M190.8,140c-1.7-2.4-6.2-8.7-9.7-14.8c-1.6-2.8-2.6-4.6-2.6-4.6c-2.2-4-2.9-6-5.8-10.7
				c-1.4-2.2-2.5-3.9-3.6-5.4c-3.5-4.8-8.2-11-9.4-12.5c-2.8-3.7-6.3-9.3-9.3-17.5"/>
			<path class="st2" d="M175.7,151.3c0,1.1,0,2.7,0.4,4.5c0.5,2.8,0.8,4.5,2.1,5.9c0.6,0.7,0.9,0.7,5.3,2.7c3,1.4,3.5,2,5.1,2.3
				c1.3,0.2,2.8,0.5,4.3-0.3c1.7-0.9,2.9-2.9,2.7-4.8c-0.2-2.3-2.5-2.5-2.9-5.2c-0.1-0.3-0.5-3,1-4.2c1-0.8,1.9-0.1,6.1-0.1
				c2.4,0,3-0.2,3.4-0.4c2-1,2.6-3.2,2.7-3.5c0.7-2.6-0.6-5.7-2.6-6.7c-1.5-0.7-2.3,0-4.8-0.7c-1.7-0.5-2.9-1.3-3.7-2"/>
			<circle class="st5" cx="175.6" cy="151.5" r="0.5"/>
			<circle class="st5" cx="194.8" cy="139" r="0.5"/>
			<path class="st2" d="M171.6,155.9c-2.5-4.2-6.4-10.6-11.4-18.2c-7.7-11.8-11.2-16.3-16.2-24c-4.3-6.7-10.2-16.5-16.3-29.4"/>
			<path class="st2" d="M201.3,137.2c-4.5-7.4-8.2-13.2-10.7-17c-12.3-18.7-20.8-28.9-25.2-38.1c-0.5-1.1-2.6-5.6-6-11.2
				c-1.2-2-2.3-3.6-2.9-4.5"/>
			<g>
				<path class="st2" d="M152.9,39.6c1.7,2.7,4.7,7.5,8.6,13.4c23.8,36.1,50,73.6,50,73.6c5.5,7.8,7.6,10.8,7.6,15.6
					c0.1,18.1-30,38.7-47.4,32.2c-9.3-3.5-7.3-11.9-24.2-37.2c-10.3-15.3-14-16.4-24-31.4c-10-15-16.2-28.4-19.8-37.1
					C120.2,59,136.6,49.3,152.9,39.6z"/>
				<path class="st3" d="M151.1,35.3c0.4,0.9,0.9,1.9,1.5,2.9c0.5,0.8,0.9,1.5,1.4,2.1c-16.7,10.1-33.3,20.2-50,30.3
					c-0.1-0.3-0.3-0.7-0.4-1c-0.5-1.2-1-2.3-1.4-3.4C118.5,55.9,134.8,45.6,151.1,35.3z"/>
				<path class="st6" d="M152.5,37.9c-16.5,10.2-32.9,20.5-49.4,30.7"/>
			</g>
			<path class="st7" d="M127.9,84.6c5.1-2.1,8.9-4.3,11.4-5.9c2.9-1.9,4.2-3.1,8-5.8c3.9-2.8,7.2-4.8,9.4-6.1"/>
			<path class="st2" d="M171.2,155.5c5-2.1,8.8-4.4,11.4-6.1c4.2-2.8,4-3.4,8-5.8c2.2-1.3,5-2.8,8.8-5.6c0.7-0.5,1.2-0.9,1.6-1.2"/>
			<path class="st2" d="M133.4,83.3c-1-0.5-2.4-1.2-3.9-2.4c-1.8-1.3-3.3-2.5-4.4-4.5c-1.6-2.9-1.4-5.7-1.3-6.5
				c0.1-1.5,0.6-2.7,1.5-5c1.3-3.3,2-5,3.3-5.4c1.9-0.6,4.1,1.2,4.4,1.4c2,1.7,1.3,3.5,3.4,5c0.3,0.2,2.5,1.8,4.2,1
				c1.5-0.6,2.1-2.7,2.8-5.4c0.6-2.3,0.4-2.9,1.2-3.5c1.6-1.5,4.7-0.3,5.1-0.1c2.2,0.8,4.8,3,4.8,5.4c0,1.5-1.1,2-1.5,4.6
				c-0.2,1.2-0.1,2.2,0,2.9"/>
			<circle class="st5" cx="133.9" cy="83.7" r="0.5"/>
			<circle class="st5" cx="153.2" cy="71" r="0.5"/>
			<g>
				<g>
					<path class="st8" d="M172.8,150.8c-0.1-0.1-0.2-0.3-0.2-0.4"/>
					<path class="st24" d="M172.1,149.5c-0.3-0.5-0.6-1-0.9-1.6c-0.8-1.3-4.8-8.2-7.9-12.9c-3.6-5.4-3.9-4.9-8.3-11
						c-4.7-6.6-3.6-6.1-11.4-18.1c-3.1-4.8-5.3-8-7.9-13.3c-1-2.1-1.8-4-2.4-5.5"/>
					<path class="st8" d="M133.1,86.6c-0.1-0.2-0.1-0.3-0.2-0.5"/>
				</g>
			</g>
			<path class="st10" d="M171,151.4c-0.3-0.6-0.9-1.5-1.6-2.7c-3.1-5.3-5.2-8.9-7.9-12.9c-0.4-0.7-0.4-0.6-2.5-3.5
				c-6-8.5-9.1-12.9-12-17.3c-1-1.5-3-4.5-5.2-8.3c-2.9-4.8-6.5-11.4-10.3-19.5"/>
			<path class="st2" d="M129.4,87.8c4.7-2.2,8.2-4.3,10.6-5.9c4.4-2.9,4.1-3.4,8-5.8c2.3-1.4,5-2.8,8.8-5.6c0.7-0.5,1.2-0.9,1.6-1.2
				"/>
			<path class="st7" d="M169.6,152.1c5.5-1.9,9.6-4.1,12.3-5.9c2.7-1.8,4-2.9,8-5.8c3.9-2.7,7.2-4.8,9.4-6.1"/>
		</g>
		<g>
			<path class="st25" d="M209.6,81.3c-3.7,1.3-7.3,2.7-11,4c1.1,0.8,2.3,1.6,3.4,2.5c5.2-0.8,10.5-1.5,15.8-2.2c-1-1.7-2-3.3-3-5
				C213,80.8,211.3,81,209.6,81.3z"/>
			<path class="st26" d="M225.3,74.8c1.8,1.9,4.4,4.9,6.7,9.1c2,3.6,2.4,5.7,4.2,9.5c1.6,3.4,3.3,6,7.2,11.5
				c6.4,8.9,12.8,17,17.1,22.3c-5.9,4.2-11.8,8.5-17.7,12.7c-10.3-13.2-14.4-20.4-16.2-24.6c-3.2-7.3-4-9-5.8-12.4
				c-0.7-1.3-1.1-2-2.2-4.3c-1.4-2.9-1.4-2.9-1.7-3.2c-1.8-1.7-3.8-0.8-7.1-2.1c-1.7-0.7-3-1.6-3.7-2.2"/>
			<path class="st26" d="M227.5,83.8c0.4-2.3,0.1-3.9-0.3-4.9c-0.6-1.8-1.4-2.1-1.9-4.1c-0.4-1.7,0-2.1-0.5-3.9
				c-0.3-1-0.7-2.2-1.6-3.1c-1.5-1.4-2.7-0.6-5.3-1.8c-2.2-1-2.1-2.1-4-2.9c-2.1-1-4.2-0.5-6.2-0.1c-6.7,1.5-10.1,2.2-13.6,3.5
				c-3.6,1.3-7.2,2.7-12.1,5.1c-13,6.5-13.5,10.1-13.5,10.9c0,0.3,0,1,0.4,1.4c1.5,1.5,6.7-1.5,7.6-2"/>
			<path class="st26" d="M215.1,87.8c-3.2,1.6-6,2.4-7.9,2.9c-1.7,0.4-2.9,0.6-5.5,1.3c-1.9,0.6-3,0.9-4.6,1.6
				c-2.2,1-2.8,1.6-5.1,2.4c-2.9,1-3.5,0.5-3.6,0.3c-0.4-0.5-0.2-1.3-0.1-1.7c0.9-3.4,6-5.2,9.8-6.5c2-0.7,3.4-1.1,3.4-1.1
				c2.1-0.6,3.5-0.8,5.2-1.5c0.6-0.2,1.6-0.7,1.6-0.7c1.1-0.5,1.7-0.7,1.7-0.8c0-0.2-2.4,0.1-13.3,2.2c-3.3,1.8-5.9,3.5-7.7,4.8
				c-2.4,1.7-4.7,3.6-8.1,4.2c-2.3,0.4-3.1-0.1-3.5-0.5c-0.5-0.5-0.6-1.4-0.4-2.1c0.4-1.2,1.6-1.6,3.7-2.7c1.3-0.7,2.4-1.7,3.6-2.5
				c1.6-1.1,4-2.9,6.7-5.7c3.9-1.2,7.9-2.5,11.8-3.7"/>
		</g>
		<path class="st4" d="M201.1,87c-0.8-0.4-1.7-0.8-2.5-1.1"/>
		<g>
			<g>
				<path class="st20" d="M202.5,96c5.3,7.7,10.6,15.4,16,23"/>
				<g>
					<path class="st21" d="M222,124c-2.5-1.7-6-3.6-8.8-4.3l4.9-1.3l2.9-4.1C220.7,117.1,221.2,121,222,124z"/>
				</g>
			</g>
		</g>
		<g>
			<g>
				<path class="st20" d="M104.1,96.8c-4.8-8-9.5-16.1-14.3-24.1"/>
				<g>
					<path class="st21" d="M86.8,67.5c2.4,1.9,5.7,4,8.4,4.9l-5,0.9L87,77.3C87.6,74.4,87.3,70.5,86.8,67.5z"/>
				</g>
			</g>
		</g>
		<path class="st26" d="M200.9,71.3c-3.7,0.5-8.4,1.5-13.5,3.8c-3.2,1.4-5.5,3.1-10.1,6.3c-7.7,5.4-9.5,8-9.2,9.6
			c0,0.2,0.1,0.6,0.5,1c0.9,0.9,2.7,0.4,4.8-0.4c4.4-1.7,7.2-3.5,7.2-3.5c2.2-1.5,5.2-3.7,8.4-6.8c4.8-1.1,9.5-2.3,14.3-3.4"/>
		<g>
			<g>
				<path class="st25" d="M96.1,43c2.9,2.6,5.8,5.2,8.8,7.8c-1.4,0.3-2.7,0.7-4.1,1c-4.6-2.6-9.2-5.3-13.8-7.9
					c1.6-1.2,3.1-2.4,4.7-3.5C93.1,41.2,94.6,42.1,96.1,43z"/>
				<path class="st26" d="M83.8,31.1c-2.4,1.1-5.9,2.9-9.6,6c-3.2,2.7-4.3,4.4-7.4,7.3c-2.8,2.6-5.3,4.4-10.9,8.1
					c-9.3,5.9-18.2,11.1-24.1,14.5c3.9,6.1,7.9,12.2,11.8,18.3C58,76.7,64.5,71.5,67.7,68.3c5.6-5.6,7.1-6.9,10-9.4
					c1.1-0.9,1.8-1.5,3.7-3.2c2.4-2.1,2.3-2.2,2.8-2.4c2.3-0.9,3.8,0.7,7.4,0.7c1.8,0,3.3-0.4,4.3-0.7"/>
				<path class="st26" d="M78.4,38.7c0.4-2.3,1.3-3.7,2.1-4.5c1.3-1.5,2.1-1.4,3.3-3.1c1-1.4,0.7-2,1.9-3.4c0.7-0.9,1.4-1.8,2.6-2.3
					c1.9-0.8,2.8,0.4,5.6,0.3c2.5-0.1,2.7-1.1,4.8-1.2c2.3-0.1,4.1,1,5.8,2.2c5.7,3.8,8.6,5.7,11.4,8.2c2.9,2.6,5.7,5.1,9.4,9.2
					c9.7,10.8,8.8,14.4,8.6,15.1c-0.1,0.3-0.3,0.9-0.9,1.2c-2,0.9-5.7-3.9-6.3-4.7"/>
				<path class="st26" d="M88.5,47c2.4,2.7,4.7,4.5,6.3,5.6c1.4,1,2.5,1.6,4.7,3.2c1.6,1.2,2.5,1.9,3.7,3.1c1.7,1.7,2,2.5,3.9,4.1
					c2.3,2,3,1.8,3.3,1.6c0.6-0.3,0.7-1.2,0.7-1.5c0.4-3.5-3.7-7-6.7-9.6c-1.6-1.4-2.8-2.3-2.8-2.3c-1.7-1.3-2.9-2-4.2-3.3
					c-0.4-0.4-1.2-1.2-1.3-1.3c-0.9-0.9-1.3-1.3-1.3-1.4c0.1-0.1,2.2,1,11.5,7c2.4,2.9,4.2,5.4,5.4,7.3c1.6,2.5,3,5,6,6.9
					c2,1.2,2.9,1.1,3.4,0.8c0.7-0.3,1.1-1.1,1.1-1.8c0.1-1.3-0.9-2.1-2.4-3.9c-0.9-1.1-1.6-2.4-2.5-3.7c-1.1-1.6-2.6-4.1-4.1-7.7
					c-3.2-2.6-6.4-5.2-9.6-7.7"/>
			</g>
			<path class="st26" d="M107.7,36.8c3.3,1.8,7.3,4.5,11.2,8.5c2.4,2.5,4,4.9,7.1,9.6c5.2,7.9,5.9,10.9,5,12.3
				c-0.1,0.1-0.3,0.6-0.8,0.7c-1.2,0.5-2.7-0.7-4.3-2.1c-3.5-3.2-5.4-5.9-5.4-5.9c-1.5-2.2-3.5-5.4-5.3-9.4c-4-2.8-8-5.6-12.1-8.4"
				/>
		</g>
	</g>
</g>
<g id="_x34_" class="st0">
	<path class="st27" d="M104.6,125.9c5.1-0.1,12.1-0.2,20.6-0.3c10.5-0.1,15.7-0.2,21.6-0.1c6.6,0.1,13,0.3,25.6,0.7
		c5.8,0.2,13.4,0.5,22.4,0.8"/>
	<path class="st27" d="M104.1,114.5c13.3-0.4,24.1-0.1,31.5,0.3c9.3,0.5,9.5,0.9,15.1,0.9c12.9,0,17.9-2.1,29.5-1.8
		c6,0.2,11,0.9,14.6,1.6"/>
	<path class="st27" d="M104.4,121.8c3.4-0.2,12.5-0.7,20.7-0.4c3.8,0.1,6.2,0.3,6.2,0.3c5.3,0.4,7.8,0.8,14.2,0.9
		c3,0,5.5-0.1,7.6-0.2c6.9-0.5,16.1-1.3,18.3-1.5c5.4-0.5,13.2-0.5,23.2,1.7"/>
	<circle class="st28" cx="102.9" cy="126.4" r="0.6"/>
	<path class="st29" d="M100.6,92.9c5.8,0.1,14.5,0.2,25.2,0.1c16.5-0.3,23.3-0.9,34-1.1c9.3-0.1,22.8,0.2,39.4,2.1"/>
	<path class="st29" d="M100.6,134c10.1,0.2,18.3,0.1,23.6,0c26.3-0.6,41.7-2.6,53.6-1.2c1.5,0.2,7.2,0.9,14.9,1c2.8,0,5,0,6.3,0"/>
	<path class="st30" d="M198.7,94c-1.1,6.3-1.3,11.5-1.2,15c0.1,4,0.4,6.1,0.7,11.6c0.3,5.6,0.3,10.2,0.2,13.1"/>
	<path class="st29" d="M101.2,92.6c-1,6.3-1.2,11.5-1.1,15.1c0.2,5.9,0.8,6.1,0.7,11.6c-0.1,3.1-0.4,6.7,0,12.3
		c0.1,1,0.1,1.8,0.2,2.3"/>
	<path class="st29" d="M196.6,100.3c1.1-0.7,2.7-1.6,4.8-2.4c2.5-1,4.9-1.4,7.2-1.5c1.8-0.1,14.7-1.1,15.8,2.5
		c0.8,2.7-6.1,4.3-9.3,12.2c-1.9,4.8-0.1,5.9-2.4,10.1c-2.6,4.9-8.4,9.6-13,8.3c-1.3-0.4-2.2-1.2-2.8-1.8"/>
	<circle class="st28" cx="195.8" cy="100.5" r="0.6"/>
	<circle class="st28" cx="196.5" cy="127.7" r="0.6"/>
	<g class="st1">
		<g>
			<path class="st8" d="M104.9,97.2c0.2,0,0.3,0,0.5,0"/>
			<path class="st31" d="M106.3,97.3c0.7,0,1.5,0.1,2.5,0.1c1.8,0.1,11.1,0.3,17.8,0.2c7.6-0.2,7.3-0.8,16.1-1.4
				c9.5-0.6,8.3,0.2,25.2,0c6.7-0.1,11.3-0.3,18.2,0.5c2.8,0.3,5.3,0.8,7.1,1.1"/>
			<path class="st8" d="M193.6,97.9c0.2,0,0.3,0.1,0.5,0.1"/>
		</g>
	</g>
	<path class="st32" d="M105.4,95c0.8,0,2.1,0.1,3.7,0.1c7.3,0.2,12.1,0.4,17.8,0.2c0.9,0,0.8,0,5-0.3c12.3-0.7,18.5-1,24.7-1.1
		c2.1,0,6.3-0.1,11.6,0c6.6,0.1,15.3,0.6,25.8,2"/>
	<path class="st29" d="M194.6,93.5c-0.8,6-0.8,10.9-0.7,14.2c0.2,6.2,0.8,6.2,0.7,11.6c-0.1,3.1-0.4,6.7,0,12.3
		c0.1,1,0.1,1.8,0.2,2.3"/>
	<path class="st30" d="M105.7,93.2c-1.6,6.7-1.9,12.1-1.9,15.9c0,3.8,0.4,5.8,0.7,11.6c0.3,5.5,0.3,10.1,0.2,13.1"/>
	<path class="st29" d="M102.5,99.8c-1.1-0.7-2.7-1.6-4.8-2.4c-2.5-1-4.9-1.4-7.2-1.5c-1.8-0.1-14.7-1.1-15.8,2.5
		c-0.8,2.7,6.1,4.3,9.3,12.2c0.4,0.9,0.9,1.7,0.8,2.7c-0.2,2.2-2.6,2.9-2.9,4.9c-0.1,0.3-0.2,1.6,2,4.3c2.8,3.3,9.5,8.8,15.4,6.5
		c0.9-0.3,1.8-0.9,2.8-1.8"/>
	<circle class="st28" cx="102.5" cy="99.6" r="0.6"/>
	<g class="st1">
		<g>
			<defs>
				<circle id="SVGID_4_" cx="228.5" cy="50.3" r="38.1"/>
			</defs>
			<clipPath id="SVGID_5_">
				<use xlink:href="#SVGID_4_"  style="overflow:visible;"/>
			</clipPath>
			<circle class="st33" cx="228.5" cy="50.3" r="38.1"/>
			<g class="st34">
				<path class="st11" d="M154.6,44.7c18,1.5,32.6,1.6,42.9,1.4c13.2-0.3,17.4-1.1,30.8-1.1c9.6,0,18.1,0.3,38.2,1.8
					c14.3,1.1,33.3,2.6,55.8,4.9"/>
				<g>
					<g>
						<path class="st35" d="M161.5,52.3c0.3,0,0.6,0,1,0.1"/>
						<path class="st36" d="M164.5,52.5c1.1,0.1,2.4,0.2,3.7,0.2c3.1,0.2,18.9,1.2,30.3,1.2c12.9,0.1,12.5-1.1,27.5-1.5
							c16.2-0.5,14.1,0.8,42.8,1.3c11.5,0.2,19.2,0.1,30.9,1.8c4.7,0.7,8.6,1.5,11.7,2.2"/>
						<path class="st35" d="M312.4,57.9c0.3,0.1,0.7,0.2,1,0.2"/>
					</g>
				</g>
				<path class="st37" d="M162.6,48.5c1.3,0.1,3.6,0.2,6.3,0.4c12.4,0.8,20.6,1.3,30.3,1.2c1.6,0,1.4,0,8.6-0.2
					c20.9-0.5,31.6-0.8,42-0.7c3.6,0,10.8,0.1,19.7,0.6c11.2,0.6,26.1,1.8,43.8,4.7"/>
			</g>
		</g>
		<path class="st38" d="M200.1,74.9c9.2-1.4,16.6-1.5,21.6-1.4c6.5,0.2,9.6,0.9,16.8,1.2c8.3,0.3,14.9-0.3,19.2-0.7"/>
		<path class="st38" d="M205,79.5c4.9-0.9,8.7-0.7,11.3-0.3c3.1,0.4,4.9,1.2,8.8,1.4c3.5,0.2,6-0.2,7.3-0.4c3.9-0.5,10.1-1,19.7-0.7
			"/>
	</g>
	<g class="st1">
		<g>
			<path class="st20" d="M144.9,84c1.8-3.2,5.8-9.5,13.4-14.5c4.7-3.1,9.3-4.7,13.1-5.6"/>
			<g>
				<path class="st21" d="M177.3,62.9c-2.6,1.5-5.8,3.9-7.6,6.1l0.9-5l-2.5-4.4C170.5,61.2,174.3,62.4,177.3,62.9z"/>
			</g>
		</g>
	</g>
	<g class="st1">
		<path class="st25" d="M248.8,189.8c-4.1,0.1-8.2,0.2-12.3,0.3c-2.5-0.1-5-0.2-7.5-0.3c-0.1-4.7-0.2-9.4-0.2-14.1
			c-0.1-4.3-0.3-8.6-0.6-13.1c-0.4-7-1-13.8-1.8-20.3c-0.6-0.5-1.4-1.2-2.4-2.3c0,0-1.6-1.8-3-4.2c-1.5-2.7-5.1-10.2-9.3-20.5
			c0.4-0.7,0.8-1.2,1.3-1.3c2.6-0.6,7.2,6.7,13.7,22c3.2,3.2,7,7.7,10.4,13.9c4.9,8.9,6.6,17.1,7.2,22.5c1.1,1.2,2.2,2.5,3.3,3.7
			C248,180.7,248.4,185.2,248.8,189.8z"/>
		<g>
			<path class="st22" d="M221.1,95.4c-0.7-1.7-0.5-3.5,0.5-4.3c0.1-0.1,0.9-0.8,1.8-0.6c0.8,0.2,1.2,1.2,1.4,1.5c0.7,1.6,3,5,7,10.4
				"/>
			<path class="st22" d="M248.8,189.8c-2.3-26.2-3.1-37.6-3-40.6c0-0.1,0-0.4,0-0.8c0-1.6,0.1-4.9-0.1-9.2
				c-0.2-4.3-0.5-8.6-1.8-13.8c-0.8-3.2-2.2-7.8-4.9-12.8c-3-5.8-6.4-9.5-8.6-11.6c-3.5-3.3-6-4.5-7.2-4.9c-2-0.8-3.8-1.1-4.5-1.2
				c-1.1-0.2-3-0.4-5.3-0.2c-3,0.2-5,0.4-5.8,1.8c-0.2,0.4-0.6,1.3,0.1,3"/>
			<path class="st22" d="M230,110.3c-0.9-1.2-2.3-3-4-5.1c-4-4.9-4.8-5.4-5.5-5.8c-1.2-0.6-3.7-0.5-8.6-0.2
				c-5.7,0.3-6.8,0.9-7.2,1.7c-0.6,1.1-0.1,2.5,0.5,3.5"/>
			<path class="st22" d="M225.1,114.8c-2.9-3.1-5.8-6.2-8.7-9.4c-1-0.3-2.5-0.6-4.4-0.7c-2.2-0.2-8.8-0.8-9.9,1.8
				c-0.5,1.2,0.4,3.2,0.5,3.4c0.3,0.6,0.6,1.1,0.9,1.4"/>
			<path class="st22" d="M222,119.9c-2-2.6-3.8-4.6-5.2-6.2c-2.4-2.6-3.3-3.5-4.8-4c-0.6-0.2-2.6-0.9-4.9-0.3
				c-2.2,0.6-4.8,2.4-4.6,4.1c0.1,0.8,1.1,1.5,3.2,2.9c1.1,0.8,2.1,1.4,2.7,1.8c0.9,0.5,2.1,0.5,2.8-0.1c0.9-0.7,0.9-1.9,0.9-2"/>
			<path class="st38" d="M231.3,145.7c-6-3.4-8.8-7.1-10.3-9.9c-0.7-1.3-1.9-4-4.3-9.5c-0.5-1.2-1.2-2.7-2.2-4.9
				c-1-2.2-1.9-4.1-2.5-5.3c-0.7-0.7-1.3-1.4-2-2.1c-0.9,0-1.7,0-2.6,0"/>
			<path class="st38" d="M229,189.8c0-5.8-0.1-11.8-0.4-17.9c-0.4-10.4-1.2-20.3-2.2-29.6"/>
		</g>
	</g>
	<g class="st1">
		<path class="st25" d="M44.2,189.8c4.1,0.1,8.2,0.2,12.3,0.3c2.5-0.1,5-0.2,7.5-0.3c0.1-4.7,0.2-9.4,0.2-14.1
			c0.1-4.3,0.3-8.6,0.6-13.1c0.4-7,1-13.8,1.8-20.3c0.6-0.5,1.4-1.2,2.4-2.3c0,0,1.6-1.8,3-4.2c1.5-2.7,5.1-10.2,9.3-20.5
			c-0.4-0.7-0.8-1.2-1.3-1.3c-2.6-0.6-7.2,6.7-13.7,22c-3.2,3.2-7,7.7-10.4,13.9c-4.9,8.9-6.6,17.1-7.2,22.5
			c-1.1,1.2-2.2,2.5-3.3,3.7C45,180.7,44.6,185.2,44.2,189.8z"/>
		<g>
			<path class="st22" d="M71.9,95.4c0.7-1.7,0.5-3.5-0.5-4.3c-0.1-0.1-0.9-0.8-1.8-0.6c-0.8,0.2-1.2,1.2-1.4,1.5
				c-0.7,1.6-3,5-7,10.4"/>
			<path class="st22" d="M44.2,189.8c2.3-26.2,3.1-37.6,3-40.6c0-0.1,0-0.4,0-0.8c0-1.6-0.1-4.9,0.1-9.2c0.2-4.3,0.5-8.6,1.8-13.8
				c0.8-3.2,2.2-7.8,4.9-12.8c3-5.8,6.4-9.5,8.6-11.6c3.5-3.3,6-4.5,7.2-4.9c2-0.8,3.8-1.1,4.5-1.2c1.1-0.2,3-0.4,5.3-0.2
				c3,0.2,5,0.4,5.8,1.8c0.2,0.4,0.6,1.3-0.1,3"/>
			<path class="st22" d="M63,110.3c0.9-1.2,2.3-3,4-5.1c4-4.9,4.8-5.4,5.5-5.8c1.2-0.6,3.7-0.5,8.6-0.2c5.7,0.3,6.8,0.9,7.2,1.7
				c0.6,1.1,0.1,2.5-0.5,3.5"/>
			<path class="st22" d="M67.9,114.8c2.9-3.1,5.8-6.2,8.7-9.4c1-0.3,2.5-0.6,4.4-0.7c2.2-0.2,8.8-0.8,9.9,1.8
				c0.5,1.2-0.4,3.2-0.5,3.4c-0.3,0.6-0.6,1.1-0.9,1.4"/>
			<path class="st22" d="M71,119.9c2-2.6,3.8-4.6,5.2-6.2c2.4-2.6,3.3-3.5,4.8-4c0.6-0.2,2.6-0.9,4.9-0.3c2.2,0.6,4.8,2.4,4.6,4.1
				c-0.1,0.8-1.1,1.5-3.2,2.9c-1.1,0.8-2.1,1.4-2.7,1.8c-0.9,0.5-2.1,0.5-2.8-0.1c-0.9-0.7-0.9-1.9-0.9-2"/>
			<path class="st38" d="M61.7,145.7c6-3.4,8.8-7.1,10.3-9.9c0.7-1.3,1.9-4,4.3-9.5c0.5-1.2,1.2-2.7,2.2-4.9c1-2.2,1.9-4.1,2.5-5.3
				c0.7-0.7,1.3-1.4,2-2.1c0.9,0,1.7,0,2.6,0"/>
			<path class="st38" d="M64,189.8c0-5.8,0.1-11.8,0.4-17.9c0.4-10.4,1.2-20.3,2.2-29.6"/>
		</g>
	</g>
</g>
<g id="_x35_" class="st0">
	<path class="st39" d="M507.3,142.2"/>
	<g class="st1">
		<g>
			<path class="st25" d="M49.6,181.9c6.3,0,12.5,0.1,18.8,0.1c0-0.5,0-1.2,0.1-2c0-0.9,0.2-6.7,0.6-13.1c0.4-7,1-13.8,1.8-20.3
				c0.6-0.5,1.4-1.2,2.4-2.3c0,0,1.6-1.8,3-4.2c1.5-2.7,5.1-10.2,9.3-20.5c-0.4-0.7-0.8-1.2-1.3-1.3c-2.6-0.6-7.2,6.7-13.7,22
				c-3.2,3.4-7,8-10.4,13.9c-4.3,7.3-6.7,14.2-8.1,19.4c-0.8,2.3-1.6,4.5-2.4,6.8C49.7,180.9,49.6,181.4,49.6,181.9z"/>
			<g>
				<path class="st22" d="M76.2,99.7c0.7-1.7,0.5-3.5-0.5-4.3c-0.1-0.1-0.9-0.8-1.8-0.6C73,95,72.6,96,72.5,96.3
					c-0.7,1.6-3,5-7,10.4"/>
				<path class="st22" d="M49.6,181.5c1.6-17.6,2-25.1,1.9-27.9c0-0.1,0-0.4,0-0.8c0-1.6-0.1-4.9,0.1-9.2c0.2-4.3,0.5-8.6,1.8-13.8
					c0.8-3.2,2.2-7.8,4.9-12.8c3-5.8,6.4-9.5,8.6-11.6c3.5-3.3,6-4.5,7.2-4.9c2-0.8,3.8-1.1,4.5-1.2c1.1-0.2,3-0.4,5.3-0.2
					c3,0.2,5,0.4,5.8,1.8c0.2,0.4,0.6,1.3-0.1,3"/>
				<path class="st22" d="M67.3,114.6c0.9-1.2,2.3-3,4-5.1c4-4.9,4.8-5.4,5.5-5.8c1.2-0.6,3.7-0.5,8.6-0.2c5.7,0.3,6.8,0.9,7.2,1.7
					c0.6,1.1,0.1,2.5-0.5,3.5"/>
				<path class="st22" d="M72.1,119.1c2.9-3.1,5.8-6.2,8.7-9.4c1-0.3,2.5-0.6,4.4-0.7c2.2-0.2,8.8-0.8,9.9,1.8
					c0.5,1.2-0.4,3.2-0.5,3.4c-0.3,0.6-0.6,1.1-0.9,1.4"/>
				<path class="st22" d="M75.3,124.2c2-2.6,3.8-4.6,5.2-6.2c2.4-2.6,3.3-3.5,4.8-4c0.6-0.2,2.6-0.9,4.9-0.3
					c2.2,0.6,4.8,2.4,4.6,4.1c-0.1,0.8-1.1,1.5-3.2,2.9c-1.1,0.8-2.1,1.4-2.7,1.8c-0.9,0.5-2.1,0.5-2.8-0.1c-0.9-0.7-0.9-1.9-0.9-2"
					/>
				<path class="st38" d="M66,150c6-3.4,8.8-7.1,10.3-9.9c0.7-1.3,1.9-4,4.3-9.5c0.5-1.2,1.2-2.7,2.2-4.9c1-2.2,1.9-4.1,2.5-5.3
					c0.7-0.7,1.3-1.4,2-2.1c0.9,0,1.7,0,2.6,0"/>
				<path class="st38" d="M68.4,182c0.1-1.9,0.1-3.9,0.2-5.8c0.4-10.2,1.2-20.1,2.2-29.6"/>
			</g>
		</g>
		<g>
			<circle class="st18" cx="233.4" cy="60" r="38.4"/>
			<g>
				<defs>
					<circle id="SVGID_6_" cx="233.4" cy="60" r="38.1"/>
				</defs>
				<clipPath id="SVGID_7_">
					<use xlink:href="#SVGID_6_"  style="overflow:visible;"/>
				</clipPath>
				<circle class="st40" cx="233.6" cy="60" r="38.1"/>
				<path class="st41" d="M232.6,18.9c-0.8,11.1-1.5,22.1-2.3,33.2c-0.8-3.9,0.7-7.8,3.6-9.5c0.2-0.1,3-1.7,6.1-0.7
					c3.7,1.2,5.1,5.3,6.2,8.4c1.5,4.3,1.3,8,1.1,10c-0.3,4.9-1.5,4.2-2.3,10.6c-0.3,2.4-0.3,4.1-1.6,5c-1.8,1.2-4.5,0-4.9-0.2
					c-3.2-1.5-4.2-5-4.3-5.7c0.2,1.1,0.4,2.8,0.3,4.8c-0.2,4.4-1.6,7.6-2.8,10.1c-1.8,3.8-3.7,6.4-5.8,9c-2.5,3.2-4.9,5.7-6.8,7.4"
					/>
				<path class="st41" d="M233.6,53c0.1-0.3,0.8-3.1,3.3-4c2.2-0.8,4.4,0.3,5.6,1.4c2.7,2.6,1.8,7,0.4,13.4
					c-0.6,3.1-1.3,4.3-2.3,4.6c-1.1,0.3-2.6-0.4-3-1.4c-0.4-1,0.5-2.2,1.6-3.5c1.2-1.6,1.8-1.6,2.2-2.5c0.8-1.8-0.2-5.1-2.2-5.5
					c-1.4-0.3-3.2,0.9-4,3"/>
				<path class="st40" d="M147.9,68.1c1.9,0.3,3.9,0.6,6,0.8c4.3,0.4,8.2,0.3,11.5,0c3-0.3,6.3-0.8,9.7-1.6c6.5-1.5,12-3.6,16.4-5.7
					c5-2.5,9.9-5.1,14.9-7.6c0.5,1.5,1.3,3.5,2.3,5.8c0.4,0.9,1.9,4.3,4.4,8.6c1,1.8,2.4,4,4.2,6.5c0.6,0.7,1.3,1.8,2,3.2
					c1.2,2.4,1.6,4.4,1.8,5.8c0.3,1.5,0.5,3.7,0.4,6.3c-1.1,0.7-2.4,1.6-4.1,2.5c-3.4,1.9-6.1,3.2-7.2,3.7
					c-5.3,2.3-9.6,3.5-12.4,4.2c-1,0.3-3.4,0.8-8.1,1.8c-9.2,2-8.2,1.7-10.6,2.3c-6.6,1.5-11.8,3-14.9,3.9c-2.5,0.7-4.6,1.4-6.1,1.9
					c-1-2-2.2-4.5-3.4-7.4c-1.4-3.2-2.6-6-3.9-9.7c-1-2.9-1.7-5-2.3-8c-0.4-1.8-1.2-6.5-1-12.6C147.6,70.9,147.8,69.3,147.9,68.1z"
					/>
				<path class="st42" d="M158.2,104.4c3.6-1.3,8.5-3,14.4-5c7.7-2.6,11.6-3.9,16.3-5.4c8.2-2.5,10.4-2.9,19.6-5.7
					c4-1.2,7.2-2.3,9.3-3"/>
				<path class="st42" d="M154.4,96.3c2.6-0.2,6.1-0.7,10.4-1.4c3.9-0.7,10.8-2.1,22.1-6.2c7.4-2.6,17.2-6.5,28.5-12.3"/>
				<path class="st42" d="M156.6,101.4c2.8-1.1,8.9-3.4,14.9-5.1c2.9-0.8,4.7-1.3,4.7-1.3c4.1-1,6.1-1.3,11-2.8
					c2.3-0.7,4.1-1.4,5.7-2c6-2.4,9.2-4,13.5-5.6c2.4-0.9,6-2.2,10.4-3.2"/>
				<path class="st43" d="M147.6,68c4.7,0.9,11.9,1.7,20.5,0.6c7.4-0.9,12.8-2.9,18.1-4.8c5.2-1.9,12.4-4.9,20.4-9.8"/>
				<path class="st43" d="M157.8,110.6c6.9-2.2,12.5-3.7,16.1-4.6c17.6-4.4,25.7-4.6,37.8-10.2c4.5-2.1,8-4.3,9.9-5.6"/>
				<path class="st44" d="M206.5,54c0.6,1.7,1.5,4,2.6,6.6c0.5,1.1,2.1,4.5,4.9,9.2c3.4,5.6,3.9,5.4,5.2,8c1.3,2.6,2.6,6.6,2.3,12.3
					"/>
				<g class="st45">
					<g>
						<path class="st8" d="M149.8,73.6c0.2,0,0.3,0,0.5,0"/>
						<path class="st46" d="M151.3,73.7c18.1,0.4,26.4-0.9,30.3-2.4c0.4-0.2,2.9-1.1,6.4-2.4c5.1-1.9,6.4-2.3,9-3.3
							c2.1-0.8,5-2,8.5-3.8"/>
						<path class="st8" d="M206.1,61.6c0.1-0.1,0.3-0.1,0.4-0.2"/>
					</g>
				</g>
				<path class="st47" d="M150,71.2c8.2,0.9,14.9,0.4,19.6-0.3c7.4-1,12.8-2.8,18.1-4.5c7.1-2.3,13-4.9,17.7-7.2"/>
				<path class="st43" d="M203.8,55.6c2.6,6.2,5.3,10.7,7.4,13.8c1.7,2.6,3.6,5,5,9.1c0.9,2.8,1.5,5.8,1.8,7.1
					c0.5,2.6,0.7,4.8,0.9,6.4"/>
				<path class="st48" d="M208.4,62c2.9-1.7,6-3.7,9.1-6c5.6-4.1,10.3-8.3,14.2-12.1"/>
				<path class="st48" d="M219.2,83.4c1.7-0.8,3.4-1.7,5.2-2.8c4.3-2.6,7.7-5.6,10.3-8.2"/>
				<circle class="st49" cx="219.2" cy="83.4" r="0.5"/>
				<circle class="st49" cx="208.2" cy="62" r="0.5"/>
			</g>
		</g>
		<g>
			<g>
				<path class="st20" d="M154.9,78.5c1.1-3,4.9-12.3,15-18.6c5-3.1,9.9-4.4,13.8-5"/>
				<g>
					<path class="st21" d="M189.7,54.5c-2.8,1.3-6.1,3.3-8.2,5.4l1.4-4.9l-2.1-4.6C183.1,52.2,186.8,53.7,189.7,54.5z"/>
				</g>
			</g>
		</g>
		<g>
			<path class="st22" d="M149.4,90.3c0.4-2.5,2.9-21.8-10.8-35.8c-9.1-9.3-20.4-11.1-24.2-11.6c-4-0.6-17.7-1.9-30.6,7
				c-3,2.1-11.9,8.3-15.2,19.8C68,72,65.4,82,69.4,91.7c1.5,3.6,3.4,6,4.6,11.6c0.8,3.5,0.5,5,1,9.8c0.5,5.3,1.6,10.6,2.4,13.4
				c3.1,10.6,12.5,16.9,16.6,19.6c5.2,3.5,16.4,10.9,27.5,7.4c3.6-1.2,6-3.2,10.7-7.2c4.1-3.5,10.3-8.9,14.4-18
				c4.5-10.1,4-19.6,3.4-24.4"/>
			<path class="st38" d="M71.9,92.9c1.7-0.1,4.1-0.2,7,0.1c3.9,0.4,6.3,0.6,8.6,2.2c3.1,2.1,4.2,5.4,5,7.9c1.7,5.2,1,9.8,0.4,12.5"
				/>
			<path class="st38" d="M104.1,98.8c1.2-1.3,3.1-3.1,5.9-4.4c4.8-2.3,9.4-2,11.3-1.7"/>
			<circle class="st50" cx="108.6" cy="97.4" r="2"/>
			<path class="st38" d="M73.8,100.4c0.9-0.5,3.2-1.6,6.2-1.5c4.1,0.2,6.7,2.7,7.3,3.4"/>
			<circle class="st50" cx="78.9" cy="101.6" r="2"/>
			<path class="st38" d="M100.4,93.7c1.6-1.7,4-3.7,7.1-5.3c7.8-4.1,15.4-3.2,18.5-2.7"/>
		</g>
		<path class="st25" d="M72,113.1c2,0.3,4.1,0.6,6.3,0.8c4.5,0.4,8.6,0.3,12.2,0c3.1-0.3,6.6-0.8,10.3-1.7c6.9-1.6,12.7-3.8,17.3-6
			c5.2-2.7,10.5-5.4,15.7-8c0.5,1.6,1.3,3.7,2.4,6.1c0.4,1,2,4.6,4.7,9.1c1.1,1.9,2.6,4.2,4.4,6.9c0.6,0.8,1.4,1.9,2.1,3.4
			c1.2,2.5,1.7,4.7,1.9,6.1c0.3,1.6,0.6,3.9,0.4,6.6c-1.1,0.7-2.6,1.7-4.3,2.7c-3.6,2.1-6.5,3.4-7.6,3.9c-5.6,2.5-10.1,3.7-13.1,4.5
			c-1,0.3-3.5,0.8-8.5,1.9c-9.8,2.1-8.7,1.8-11.1,2.4c-7,1.6-12.5,3.2-15.8,4.1c-2.7,0.8-4.9,1.5-6.5,2c-1-2.1-2.3-4.7-3.6-7.8
			c-1.5-3.3-2.8-6.3-4.1-10.2c-1-3-1.8-5.2-2.4-8.4c-0.4-1.9-1.3-6.8-1-13.3C71.6,116.1,71.8,114.3,72,113.1z"/>
		<path class="st4" d="M82.8,151.4c3.8-1.4,9-3.2,15.2-5.3c8.2-2.8,12.3-4.2,17.3-5.7c8.6-2.7,11-3,20.7-6c4.2-1.3,7.6-2.4,9.8-3.2"
			/>
		<path class="st4" d="M78.8,142.9c2.7-0.3,6.5-0.7,11-1.5c4.1-0.7,11.4-2.3,23.3-6.5c7.8-2.8,18.1-6.9,30.1-13"/>
		<path class="st4" d="M81.1,148.2c3-1.2,9.4-3.6,15.8-5.4c3-0.9,5-1.4,5-1.4c4.3-1.1,6.4-1.3,11.6-3c2.4-0.8,4.4-1.5,6-2.1
			c6.4-2.5,9.7-4.2,14.3-5.9c2.6-1,6.3-2.3,11-3.4"/>
		<path class="st2" d="M71.6,113c5,0.9,12.5,1.7,21.6,0.6c7.9-1,13.5-3.1,19.1-5.1c5.5-2,13-5.2,21.5-10.3"/>
		<path class="st2" d="M82.4,158c7.3-2.3,13.2-3.9,17-4.9c18.5-4.7,27.2-4.8,39.9-10.8c4.8-2.3,8.4-4.5,10.5-5.9"/>
		<path class="st7" d="M133.8,98.2c0.6,1.8,1.5,4.2,2.8,7c0.5,1.1,2.2,4.8,5.2,9.8c3.6,5.9,4.1,5.7,5.5,8.5
			c1.3,2.8,2.7,6.9,2.5,12.9"/>
		<path class="st2" d="M72,113.1c-1.1,8.6-0.1,15.3,0.8,19.5c1.1,4.8,2.8,9,4.8,14c1.9,4.7,3.7,8.6,5.1,11.3"/>
		<path class="st2" d="M135.6,106.2c1-2,2.6-5.1,4.5-9c2.7-5.7,2.9-6.4,4.2-7.7c3.3-3.5,9.1-5.9,13.5-3.9c1,0.4,1.7,1,2.2,1.5
			c-3.2,1.8-6.4,3.5-9.6,5.3c-0.1,3,0.2,6.1,1.1,9.4c0.1,0.2,0.1,0.5,0.2,0.7c2.3,2.2,3.6,4.1,4.3,5.5c0.4,0.8,1.2,2.5,2.3,4.9
			c0.5,1.1,0.8,1.7,0.8,1.8c1.8,4.5-3,15.1-8.8,15.2c-0.8,0-1.7-0.2-2.7-0.7"/>
		<circle class="st5" cx="135.6" cy="106.2" r="0.5"/>
		<circle class="st5" cx="147.2" cy="129.3" r="0.5"/>
		<g>
			<g>
				<path class="st8" d="M73.9,118.9c0.2,0,0.3,0,0.5,0"/>
				<path class="st51" d="M75.4,119c19.2,0.4,28-0.9,32.1-2.5c0.4-0.2,3-1.2,6.8-2.6c5.4-2,6.8-2.4,9.5-3.4c2.2-0.8,5.3-2.1,9.1-4"
					/>
				<path class="st8" d="M133.3,106.3c0.1-0.1,0.3-0.1,0.4-0.2"/>
			</g>
		</g>
		<path class="st10" d="M74.1,116.4c8.6,0.9,15.7,0.4,20.7-0.3c7.8-1.1,13.5-2.9,19.2-4.8c7.5-2.5,13.8-5.2,18.7-7.6"/>
		<path class="st2" d="M130.9,99.9c2.8,6.6,5.6,11.3,7.8,14.6c1.8,2.8,3.8,5.3,5.2,9.6c1,2.9,1.6,6.1,1.9,7.5
			c0.5,2.7,0.8,5.1,0.9,6.8"/>
		<path class="st7" d="M73.8,113.4c-0.1,3.9,0.1,9,1,14.9c0.4,2.3,1,6.3,2.7,11.3c1.4,4.3,3.9,10.3,8.5,16.9"/>
		<circle class="st5" cx="72.8" cy="124.7" r="0.5"/>
		<circle class="st5" cx="81.6" cy="152.2" r="0.5"/>
		<path class="st7" d="M71.5,122.8c-1.1,0.2-1.7,1.1-1.5,1.8c0.1,0.5,0.8,0.8,1.3,0.9c0.9,0.1,1.4-0.6,1.4-0.7"/>
		<path class="st7" d="M78.9,150.6c-0.5,0.8-0.5,1.7-0.2,2.1c0.5,0.6,1.9,0.6,2.9-0.5"/>
		<g>
			<path class="st25" d="M186,181.9c-4.1,0.1-8.2,0.2-12.3,0.3c-2.5-0.1-5-0.2-7.5-0.3c-0.1-4.7-0.2-9.4-0.2-14.1
				c-0.1-4.3-0.3-8.6-0.6-13.1c-0.4-7-1-13.8-1.8-20.3c-0.6-0.5-1.4-1.2-2.4-2.3c0,0-1.6-1.8-3-4.2c-1.5-2.7-5.1-10.2-9.3-20.5
				c0.4-0.7,0.8-1.2,1.3-1.3c2.6-0.6,7.2,6.7,13.7,22c3.2,3.2,7,7.7,10.4,13.9c4.9,8.9,6.6,17.1,7.2,22.5c1.1,1.2,2.2,2.5,3.3,3.7
				C185.2,172.8,185.6,177.4,186,181.9z"/>
			<g>
				<path class="st22" d="M158.3,87.5c-0.7-1.7-0.5-3.5,0.5-4.3c0.1-0.1,0.9-0.8,1.8-0.6c0.8,0.2,1.2,1.2,1.4,1.5
					c0.7,1.6,3,5,7,10.4"/>
				<path class="st22" d="M186,181.9c-2.3-26.2-3.1-37.6-3-40.6c0-0.1,0-0.4,0-0.8c0-1.6,0.1-4.9-0.1-9.2c-0.2-4.3-0.5-8.6-1.8-13.8
					c-0.8-3.2-2.2-7.8-4.9-12.8c-3-5.8-6.4-9.5-8.6-11.6c-3.5-3.3-6-4.5-7.2-4.9c-2-0.8-3.8-1.1-4.5-1.2c-1.1-0.2-3-0.4-5.3-0.2
					c-3,0.2-5,0.4-5.8,1.8c-0.2,0.4-0.6,1.3,0.1,3"/>
				<path class="st22" d="M167.1,102.4c-0.9-1.2-2.3-3-4-5.1c-4-4.9-4.8-5.4-5.5-5.8c-1.2-0.6-3.7-0.5-8.6-0.2
					c-5.7,0.3-6.8,0.9-7.2,1.7c-0.6,1.1-0.1,2.5,0.5,3.5"/>
				<path class="st22" d="M162.3,106.9c-2.9-3.1-5.8-6.2-8.7-9.4c-1-0.3-2.5-0.6-4.4-0.7c-2.2-0.2-8.8-0.8-9.9,1.8
					c-0.5,1.2,0.4,3.2,0.5,3.4c0.3,0.6,0.6,1.1,0.9,1.4"/>
				<path class="st22" d="M159.1,112c-2-2.6-3.8-4.6-5.2-6.2c-2.4-2.6-3.3-3.5-4.8-4c-0.6-0.2-2.6-0.9-4.9-0.3
					c-2.2,0.6-4.8,2.4-4.6,4.1c0.1,0.8,1.1,1.5,3.2,2.9c1.1,0.8,2.1,1.4,2.7,1.8c0.9,0.5,2.1,0.5,2.8-0.1c0.9-0.7,0.9-1.9,0.9-2"/>
				<path class="st38" d="M168.5,137.8c-6-3.4-8.8-7.1-10.3-9.9c-0.7-1.3-1.9-4-4.3-9.5c-0.5-1.2-1.2-2.7-2.2-4.9
					c-1-2.2-1.9-4.1-2.5-5.3c-0.7-0.7-1.3-1.4-2-2.1c-0.9,0-1.7,0-2.6,0"/>
				<path class="st38" d="M166.2,181.9c0-5.8-0.1-11.8-0.4-17.9c-0.4-10.4-1.2-20.3-2.2-29.6"/>
			</g>
		</g>
		<path class="st38" d="M171.7,167.8"/>
		<path class="st38" d="M93.8,178.9c1.4-1,7.5-5.7,8.8-14.2c0.9-5.6-0.8-10.1-1.6-12.1"/>
		<path class="st38" d="M132.2,146.3c-0.5,3.3-0.8,9.2,1.4,16c3.3,10.1,10.2,15.7,13,17.7"/>
	</g>
</g>
<g id="_x36_" class="st0">
	<g class="st1">
		<g>
			<path class="st4" d="M65.2,110.8c2.2,0.9,5.4,2.1,9.3,3.3c6.7,2,12.7,3.7,20.6,3.4c8.9-0.3,15.7-3.2,19.6-4.9
				c3.6-1.6,6.5-3.2,8.6-4.5"/>
			<path class="st4" d="M64.7,97.7c2.9-0.5,6.9-1.2,11.7-1.8c4.1-0.5,11.5-1.4,19.7-1.5c6.5-0.1,15.9,0.4,27.2,2.8"/>
			<path class="st4" d="M65.2,106.3c2.9,0.4,7.2,0.9,12.3,1.4c8.9,0.8,13.4,1.2,17.6,1c5.4-0.3,5.9-1.1,18.9-3.4
				c3.8-0.7,7-1.1,9.1-1.4"/>
			<path class="st2" d="M62.3,79.2c3.7,0.4,7.9,0.5,12.7,0.2c8.4-0.6,15.4-2.4,20.6-4.3c3.5,0.7,7.2,1.3,11.1,1.8
				c7.1,0.9,13.7,1.2,19.7,1.2"/>
			<path class="st2" d="M61.9,115.1c2.4,0.7,6.1,1.8,10.5,3.3c3.3,1.1,5.2,1.9,8,2.9c3.4,1.2,8.3,3,14.5,4.9
				c7.1-1.9,12.2-4.3,15.6-6.2c2.4-1.3,5.5-3.2,8.5-5c3.2-2,5.8-3.6,7.7-4.8"/>
			<path class="st7" d="M125.9,78.1c-0.2,2.4-0.5,6.2-0.3,10.9c0.1,3.8,0.4,5.6,0.6,10.2c0.1,2.8,0.3,6.6,0.2,11.3"/>
			<path class="st2" d="M62.6,79.1c-1.2,5.6-1.4,10.2-1.3,13.3c0.1,4.9,0.7,5.2,0.6,10.2c-0.1,2.7-0.3,5.9,0,10.8
				c0.1,0.8,0.1,1.5,0.2,2"/>
			<g>
				<g>
					<path class="st8" d="M65.1,85.8c0.2,0,0.3-0.1,0.5-0.1"/>
					<path class="st52" d="M66.5,85.6c3.5-0.5,6.2-0.7,8.1-0.8c1,0,2.4,0,4.4-0.2c2.8-0.3,4.3-0.6,9.7-1c5.7-0.3,7-0.1,11.9,0
						c4.6,0.1,5.6,0,10.2,0c2.6,0,6.3,0.1,10.8,0.5"/>
					<path class="st8" d="M122.2,84.1c0.2,0,0.3,0,0.5,0"/>
				</g>
			</g>
			<path class="st10" d="M65.6,83.3c5.6-0.3,8.1-0.5,9.3-0.5c0.1,0,0.3,0,0.7,0c0.8,0,1.5-0.1,3.8-0.2c10.8-0.6,16.3-0.9,21.7-1
				c2.3,0,4.9,0,10.2,0c4.8,0,8.8,0.1,11.6,0.1"/>
			<path class="st2" d="M123.2,78.1c-0.5,4.6-0.6,8.5-0.5,11.2c0.1,5.6,0.7,5.4,0.6,10.2c-0.1,2.9-0.3,5.9,0,10.8
				c0.1,0.8,0.1,1.5,0.2,2"/>
			<path class="st7" d="M66.2,79.6c-1.5,6.1-1.7,11.1-1.7,14.4c0.1,3.3,0.4,5.1,0.6,10.2c0.2,4.9,0.2,8.9,0.2,11.5"/>
			<path class="st7" d="M56.1,100.5c0,0.3,0.3,5.6,4.3,7.6c1.2,0.6,2.3,0.7,3.2,0.7"/>
			<path class="st7" d="M50.7,79.1c0.5-0.1,1.3-0.3,2.4-0.2c2.9,0.4,3.9,2.9,7.3,4.3c0.7,0.3,1.8,0.6,3.2,0.7"/>
			<circle class="st5" cx="63.4" cy="108.7" r="0.5"/>
			<circle class="st5" cx="63.4" cy="83.8" r="0.5"/>
			<g>
				<path class="st22" d="M67.9,187.2c0.9-9.1,1-13.6,0.9-16c0-0.1,0-0.4,0-0.7c0-1.4-0.1-4.3,0.1-8c0.2-3.8,0.4-7.5,1.6-12.1
					c0.7-2.9,1.9-6.8,4.3-11.3c2.6-5.1,5.6-8.4,7.5-10.2c3.1-2.9,5.3-3.9,6.4-4.3c1.7-0.7,3.4-0.9,4-1c1-0.1,2.6-0.3,4.7-0.2
					c2.6,0.2,4.4,0.3,5.1,1.6c0.2,0.3,0.5,1.2-0.1,2.7"/>
				<path class="st22" d="M82.8,137c0.8-1.1,2-2.6,3.5-4.5c3.5-4.3,4.2-4.8,4.8-5.1c1.1-0.5,3.2-0.4,7.5-0.2c5,0.2,6,0.8,6.4,1.5
					c0.5,0.9,0,2.2-0.4,3"/>
				<path class="st22" d="M87,141c2.6-2.7,5.1-5.5,7.7-8.2c0.9-0.2,2.2-0.5,3.9-0.6c1.9-0.2,7.7-0.7,8.7,1.6c0.5,1.1-0.3,2.8-0.4,3
					c-0.3,0.6-0.6,1-0.8,1.3"/>
				<path class="st22" d="M89.8,145.5c1.8-2.3,3.3-4.1,4.6-5.4c2.1-2.3,2.9-3.1,4.2-3.6c0.5-0.2,2.3-0.8,4.3-0.2
					c1.9,0.5,4.2,2.1,4,3.6c-0.1,0.7-1,1.3-2.8,2.6c-1,0.7-1.8,1.2-2.4,1.6c-0.8,0.5-1.8,0.4-2.5-0.1c-0.8-0.6-0.8-1.6-0.8-1.8"/>
				<path class="st38" d="M81.6,168.1c5.2-3,7.7-6.3,9-8.7c0.6-1.1,1.7-3.5,3.8-8.3c0.5-1.1,1.1-2.4,1.9-4.3c0.9-2,1.7-3.6,2.2-4.7
					c0.6-0.6,1.2-1.2,1.8-1.8c0.8,0,1.5,0,2.3,0"/>
				<path class="st38" d="M84.2,187.5c-0.7-2.5-1.4-6.4-1.1-11.1c0.3-5,1.7-8.9,2.8-11.3"/>
				<path class="st22" d="M100,144.3c-0.2-0.1-0.8-0.3-1.2-0.9c-0.3-0.4-0.3-0.9-0.3-1.1"/>
			</g>
			<g>
				<path class="st25" d="M129.7,93.8c-3.4-4.1-8.3-10.1-14-18c-3.4-4.1-8.1-5.8-11.5-4.3c-0.7,0.3-2,1-3.1,2.8
					c1,1.1,2.5,2.7,4.2,4.8c1.6,2,1.9,2.6,4.4,5.9c0,0,1.6,2.1,4.2,5.1c0.9,1,2.1,2.4,4.1,3.4c0.5,0.2,0.9,0.4,1.1,0.5
					c0.3,0.5,0.6,0.9,0.9,1.4c2.2,2.6,4.4,5.3,6.6,7.9c6.1,7.1,10.8,12.1,12.3,13.7c2.1,2.1,4.3,4.2,4.3,4.2
					c0.2,0.2,0.4,0.4,0.6,0.5c0.1-0.8,0.1-1.6,0.2-2.4c-0.7-3-2.1-7.4-4.7-12.3C136.5,101.7,133.6,98.5,129.7,93.8z"/>
				<g>
					<g>
						<path class="st22" d="M144.2,120c-4.9-14.9-6.8-21.4-7.2-23.8c0-0.1-0.1-0.3-0.1-0.7c-0.3-1.4-0.9-4.2-1.9-7.8
							c-1.1-3.6-2.1-7.2-4.3-11.4c-1.3-2.6-3.4-6.2-6.7-10c-3.7-4.4-7.4-6.9-9.6-8.3c-3.7-2.2-6-2.6-7.2-2.8
							c-1.8-0.3-3.5-0.1-4.1-0.1c-1,0.1-2.6,0.3-4.6,0.9c-2.5,0.8-4.2,1.3-4.6,2.7c-0.1,0.4-0.2,1.3,0.7,2.6"/>
						<path class="st22" d="M115.7,65.9c-1.1-0.9-2.6-2.1-4.4-3.6c-4.4-3.4-5.2-3.7-5.9-3.8c-1.1-0.3-3.2,0.3-7.4,1.5
							c-4.8,1.4-5.6,2.1-5.9,2.9c-0.3,1,0.4,2.1,1.1,2.9"/>
						<path class="st22" d="M112.5,70.7c-3.1-2.1-6.2-4.2-9.3-6.3c-0.9,0-2.3,0-3.9,0.2c-1.9,0.3-7.7,1.1-8.1,3.5
							c-0.2,1.2,1,2.7,1.1,2.8c0.4,0.5,0.8,0.8,1,1"/>
						<path class="st22" d="M110.8,75.8c-2.2-1.8-4.2-3.2-5.7-4.3c-2.5-1.8-3.5-2.3-4.9-2.5c-0.5-0.1-2.4-0.3-4.3,0.8
							c-1.7,1-3.6,3-3.1,4.4c0.2,0.6,1.2,1.1,3.3,1.9c1.1,0.4,2,0.8,2.7,1c0.9,0.3,1.9,0,2.4-0.7c0.6-0.8,0.4-1.8,0.4-1.9"/>
						<path class="st38" d="M123.9,96c-5.8-1.7-8.9-4.3-10.8-6.4c-0.9-1-2.4-3.1-5.6-7.2c-0.7-0.9-1.6-2.1-2.9-3.8
							c-1.3-1.7-2.4-3.1-3.2-4.1c-0.7-0.5-1.4-0.9-2.1-1.4c-0.7,0.2-1.5,0.4-2.2,0.5"/>
						<path class="st22" d="M144.4,120.3c0.3,1.5,0.8,3.9,1.4,6.8c5,21.9,9.6,26.1,10,38c0.3,7.6-1.2,20.3-7.2,22.1
							c-3,0.9-6.7-1-8.8-2.6c-3.6-2.9-4.5-7.3-4.9-9.1c-3-14.9-5.7-43.3-8.2-56.4c-1.1-6-3.2-14.7-7.8-24.9"/>
						<path class="st22" d="M100.6,76.8c0.2-0.1,0.7-0.4,0.9-1.1c0.2-0.5,0.1-0.9,0.1-1.1"/>
					</g>
					<path class="st22" d="M143.8,118.6c0.2,0.5,0.3,0.9,0.5,1.4c0.1,0.4,0.2,0.8,0.3,1.2"/>
				</g>
			</g>
			<path class="st38" d="M61.9,112.4c-1.9-3.1-4.2-7.8-5.4-13.9c-0.8-3.9-0.7-6.9-0.7-12.3c0.2-19.5,0-18.1,0.1-20
				c0.7-8.7,1.9-23.5,12.8-32.5c9.7-8.1,24.4-9.4,36.2-4.4c13.1,5.5,19.8,17.7,20.9,23.9c0.2,1.1,0.9,5.7,1.1,11.4
				c0.1,2.3,0,4.3,0,5.6"/>
			<g>
				<path class="st38" d="M55.9,85.7c0.1-2.9-1.4-5.4-3.6-6.3c-0.2-0.1-2.3-0.9-4.4,0.2c-2.5,1.3-3,4.3-3.4,6.6
					c-0.2,1.3-0.7,4,0.3,7.2c1.1,3.2,2.3,2.3,4.2,6.5c0.5,1.1,1.3,3.2,2.7,3.4c0.3,0,0.7,0,0.9,0c0,0,1.3-0.2,2.3-1
					c1.1-0.9,1.7-2.6,1.6-4.4"/>
				<path class="st38" d="M55,86.9c-0.1-0.2-0.9-2.1-2.8-2.5c-1.6-0.3-3,0.7-3.8,1.6c-1.6,2.1-0.4,5.1,1.2,9.5
					c0.8,2.1,1.4,2.8,2.1,2.9c0.8,0.1,1.8-0.6,1.9-1.4c0.1-0.8-0.6-1.5-1.5-2.3c-1.1-1-1.4-0.9-1.8-1.5c-0.7-1.2-0.5-3.6,0.9-4.1
					c1-0.4,2.4,0.3,3.2,1.6"/>
			</g>
			<path class="st38" d="M67,71.5c1.3-0.8,3.4-1.8,6.1-2.3c4.7-0.8,8.4,0.6,9.9,1.3"/>
			<circle class="st50" cx="75" cy="71.1" r="1.7"/>
			<path class="st38" d="M84.9,65.7c-1.3-1-4-2.9-7.9-3.4c-6.7-0.9-11.6,2.9-12.5,3.7"/>
			<path class="st38" d="M111,119.9c-0.4,5-0.3,9.2,0,12.1c0.2,3.1,0.5,4.3,1.4,5.4c1.6,2,3.8,2.3,8.3,3.4c2.4,0.6,5.7,1.6,9.7,3"/>
			<path class="st38" d="M82.2,122c0,2.3,0,4.6,0.1,6.9"/>
			<path class="st38" d="M73.6,141.4c-4.8,1.7-8.9,2.7-11.7,3.3c-5.6,1.1-8.6,1-11.4,3.5c-1.6,1.4-2.7,3.2-3.7,6.3
				c-3.2,10.2-1.4,23.5-0.6,28.3"/>
			<g>
				<g>
					<path class="st53" d="M52.6,111.1c1.8,7.8,3.5,15.5,5.3,23.3"/>
					<g>
						<path class="st21" d="M59.2,140.3c-1.7-2.5-4.2-5.6-6.5-7.3l5,0.6l4.3-2.7C60.5,133.5,59.6,137.3,59.2,140.3z"/>
					</g>
				</g>
			</g>
			<g>
				<g>
					<path class="st53" d="M140,81.5c-2.3-7.6-4.6-15.2-7-22.9"/>
					<g>
						<path class="st21" d="M131.3,52.9c1.8,2.4,4.6,5.3,7,6.8l-5.1-0.3l-4,3C130.4,59.8,131.1,55.9,131.3,52.9z"/>
					</g>
				</g>
			</g>
		</g>
		<g>
			<g>
				<path class="st53" d="M125.6,28.7c2.7-3.2,7.8-8.2,15.6-11.2c12.1-4.7,23.5-1.9,30.1,0.7"/>
				<g>
					<path class="st21" d="M176.8,20.7c-3-0.2-7,0-9.7,0.8l3.5-3.6l0.4-5C172.1,15.5,174.6,18.6,176.8,20.7z"/>
				</g>
			</g>
		</g>
		<g>
			<circle class="st18" cx="218.6" cy="49.5" r="38.4"/>
			<g>
				<defs>
					<circle id="SVGID_8_" cx="218.6" cy="49.5" r="38.1"/>
				</defs>
				<clipPath id="SVGID_9_">
					<use xlink:href="#SVGID_8_"  style="overflow:visible;"/>
				</clipPath>
				<path class="st54" d="M172.6,69.8c4.4-0.8,10.4-1.8,17.6-2.7c6.2-0.8,17.3-2.1,29.6-2.2c9.8-0.1,23.8,0.6,40.8,4.2"/>
				<path class="st54" d="M175,78.2c4.4,0.6,10.7,1.4,18.5,2.1c13.4,1.2,20.1,1.9,26.4,1.5c8.1-0.5,8.9-1.7,28.4-5.1
					c5.8-1,10.5-1.7,13.7-2.2"/>
				<path class="st55" d="M169.2,48.9c5.5,0.6,11.9,0.8,19,0.3c12.6-0.8,23.2-3.7,31-6.5c5.2,1,10.8,1.9,16.6,2.6
					c10.6,1.3,20.6,1.8,29.6,1.8"/>
				<g class="st56">
					<g>
						<path class="st8" d="M173.4,58.8c0.2,0,0.3-0.1,0.5-0.1"/>
						<path class="st57" d="M174.9,58.6c5.6-0.9,9.9-1.2,12.9-1.3c1.1,0,2.5-0.1,4.3-0.2c0,0,1.2-0.1,2.3-0.2
							c4.2-0.4,18.2-5.9,26.3-7c5.5-0.8,4.6,1.1,23.7,4.3c6,1,11,1.7,14.6,2.1"/>
						<path class="st8" d="M259.5,56.3c0.2,0,0.3,0,0.5,0.1"/>
					</g>
				</g>
				<path class="st58" d="M174.2,55.1c8.4-0.5,12.2-0.7,14-0.8c0.2,0,0.5,0,1,0c3.6-0.2,6.3-0.8,8-1.2c2.8-0.7,11.7-2.9,23.8-6.3
					c8.6,1.4,17.4,2.8,26.3,4.1c4.3,0.6,8.6,1.2,12.9,1.8"/>
				<path class="st59" d="M185.1,38.2c2-1.2,5-2.7,9.1-3.4c7-1.2,12.6,1,14.9,2"/>
				<circle class="st60" cx="197.1" cy="37.7" r="2.6"/>
				<path class="st59" d="M203.2,32.5c-1.9-1.5-6-4.4-11.9-5.1c-10-1.3-17.4,4.4-18.8,5.5"/>
				<path class="st59" d="M228.1,37.4c2-1.2,5-2.7,9.1-3.4c7-1.2,12.6,1,14.9,2"/>
				<circle class="st60" cx="240.2" cy="36.9" r="2.6"/>
				<path class="st59" d="M230.1,32.5c1.9-1.5,6-4.4,11.9-5.1c10-1.3,17.4,4.4,18.8,5.5"/>
				<g class="st56">
					<path class="st25" d="M240.2,104.2c-1.1-3.4-2.2-6.9-3.2-10.5c-1.4-4.8-2.6-9.4-3.8-14c-3.2-2.7-6.4-5.4-9.6-8.2
						c-2.1-1.7-4.1-3.4-6.2-5c-2-1.5-4.5-3-7.5-4.1c-0.2-0.1-0.4-0.2-0.6-0.2c-0.4-0.2-0.8-0.3-0.8-0.3c-0.6-0.2-2,0.4-3.2,1.4
						c-0.9,0.7-2,1.7-2.1,3.1c0,0.5,0.1,0.9,0.4,1.6c0.4,1,1.2,2.5,2.5,4.2c-0.1-0.3-0.6-1.2-1.7-1.7c-0.1-0.1-1.7-0.8-3.2,0.1
						c-1.5,0.9-1.5,2.6-1.6,3c0,0.9,0.2,1.5,0.4,2.1c0.4,1.1,1.1,1.8,1.5,2.3c-0.1-0.2-0.7-0.8-1.6-1c-0.2,0-1-0.2-1.8,0.3
						c-1.1,0.6-1.5,1.9-1.4,3c0.1,0.5,0.3,0.8,0.7,1.5c0.5,0.8,0.8,1.2,1.5,2c0.8,1,1.4,1.9,1.8,2.5c0.2,0.3,0.8,1.2,1.4,2.4
						c0,0,0.5,0.9,0.9,1.8c2,4.4,6.4,19.5,11.8,23C217.3,114.8,223.4,116.7,240.2,104.2z"/>
					<path class="st22" d="M235.7,88.9c-0.3-0.8-0.6-2.1-1-3.7c-2-9.3,1.3-12.2,0.2-20.5c-0.8-6.5-3.1-6.1-3.7-13.5
						c-0.3-3.6-0.1-7.3-1.5-7.7c-0.9-0.2-2,1.1-2.6,1.8c-1.8,2-2.2,4.3-2.3,5.2c-0.8,5,0.3,8.1,0.8,14.4c0.2,2.7,0.2,5,0.2,6.3"/>
					<path class="st22" d="M229.5,77c-3.7-5.8-6.4-10.8-8.2-14.2c-2.4-4.6-4.2-7.4-7.8-13.2c-2.3-3.7-4.6-7.2-7.5-7.2
						c-0.8,0-2.4,0.3-2.9,1.3c-0.3,0.7,0,1.4,0.4,2.5c1.7,4.1,2.5,6.1,2.6,6.3c1,2.2,0.8,2.4,1.6,4.6c1.3,3.4,2.8,5.6,4.1,7.6
						c1.9,2.9,4.4,7,7.8,13"/>
					<path class="st38" d="M211.2,64c-0.1-0.3-0.7-1.5-1.9-1.9c-1.3-0.4-2.4,0.2-3.2,0.7c-0.2,0.1-2,1.2-2.5,2.7
						c-0.9,2.4,1.4,5,4.9,9.9c1.4,2,3.5,5.1,5.8,9.1"/>
					<path class="st38" d="M205.5,71.1c-0.1-0.1-1.6-1.4-3.3-1c-1.5,0.4-2.4,1.9-2.5,3c-0.3,2,1.3,3.5,3.3,6.2
						c1.4,1.8,3.1,4.4,4.7,7.9"/>
					<path class="st38" d="M201.6,77.7c-0.1-0.1-1.3-1.1-2.6-0.8c-1.2,0.3-1.9,1.5-2,2.4c-0.3,1.6,1.1,2.8,2.7,4.9
						c0.3,0.4,2.3,3.3,3.8,6.4c0.9,1.9,1.3,3.2,1.8,4.6c0.9,2.6,2.3,6.4,4.7,11.1"/>
				</g>
			</g>
		</g>
	</g>
</g>
</svg>
